<svg width="291" height="30" viewBox="0 0 291 30" fill="none" xmlns="http://www.w3.org/2000/svg">
<path d="M12.9274 27.135L17.4463 20.835H25.7435C26.4111 20.8181 27.0791 20.8431 27.7437 20.91C27.32 20.3816 26.9244 19.8308 26.5584 19.26C26.1139 18.585 25.6694 17.985 25.299 17.385L21.0023 10.935L9.66777 27.135H0.852051L16.3351 5.08501C16.8632 4.35018 17.5153 3.71545 18.2612 3.21001C19.1038 2.61084 20.1228 2.31988 21.1504 2.38501C22.1433 2.32997 23.1281 2.59234 23.9655 3.13501C24.7271 3.66423 25.3915 4.32416 25.9287 5.08501L40.9673 27.135H12.9274Z" fill="white"/>
<path d="M60.7839 11.835C61.3025 12.81 61.747 13.635 62.1915 14.31L63.2286 16.185C63.525 16.785 63.8213 17.235 64.0435 17.685L64.7103 19.035C64.9385 18.5995 65.1365 18.1484 65.3029 17.685L66.1178 16.185C66.4141 15.585 66.7845 14.985 67.155 14.31C67.5254 13.635 68.0439 12.81 68.5625 11.835L72.4147 4.93501C72.8126 4.19441 73.3695 3.55365 74.0445 3.06001C74.7526 2.5444 75.6206 2.30472 76.4892 2.38501C77.3921 2.39463 78.2707 2.68239 79.008 3.21001C79.8428 3.82792 80.4231 4.73588 80.6378 5.76001L86.7125 27.21H79.3043L77.0448 18.75C76.6744 17.325 76.304 16.125 76.0818 15.075C75.8595 14.025 75.5632 12.975 75.4151 12C74.9706 12.825 74.5261 13.8 74.0816 14.85C73.6371 15.9 72.9704 17.175 72.1555 18.75L68.8959 24.885C68.6444 25.4045 68.32 25.8845 67.9328 26.31C67.6467 26.6243 67.3232 26.9014 66.9697 27.135C66.6293 27.3373 66.2508 27.4651 65.8585 27.51C65.0255 27.66 64.1728 27.66 63.3397 27.51C62.959 27.419 62.5871 27.2935 62.2285 27.135C61.875 26.9014 61.5515 26.6243 61.2655 26.31C60.8783 25.8845 60.5539 25.4045 60.3024 24.885L57.0428 18.75C56.5983 17.925 56.2279 17.175 55.8575 16.5L54.9685 14.7C54.6722 14.175 54.45 13.725 54.2277 13.275L53.561 11.925C53.4128 12.9 53.1165 13.95 52.8942 15C52.672 16.05 52.3016 17.25 51.9312 18.675L49.7087 27.225H42.4487L48.6716 5.77501C48.9234 4.76681 49.4961 3.87064 50.3014 3.22501C51.0387 2.69739 51.9173 2.40963 52.8202 2.40001C53.681 2.39206 54.5272 2.6257 55.2648 3.07501C55.9399 3.56865 56.4968 4.20941 56.8946 4.95001L60.7839 11.835Z" fill="white"/>
<path d="M121.234 11.91C121.252 13.1675 120.98 14.4118 120.44 15.5443C119.9 16.6769 119.106 17.6666 118.123 18.435C117.006 19.2568 115.751 19.8667 114.419 20.235C112.777 20.685 111.083 20.912 109.381 20.91H96.7876V27.135H89.3794V14.685H110.122C111.07 14.7496 112.01 14.4851 112.789 13.935C113.087 13.6903 113.328 13.3819 113.495 13.0318C113.661 12.6817 113.749 12.2986 113.752 11.91C113.774 11.5176 113.697 11.126 113.528 10.7719C113.36 10.4177 113.106 10.1126 112.789 9.88499C112.006 9.34402 111.069 9.08033 110.122 9.13499H89.3794L89.4535 2.75999H109.456C111.157 2.75798 112.851 2.98497 114.493 3.43499C115.829 3.82987 117.084 4.465 118.197 5.30999C119.176 6.06128 119.963 7.03839 120.494 8.15999C120.994 9.3446 121.247 10.6216 121.234 11.91Z" fill="white"/>
<path d="M151.089 20.91L146.274 27.21H125.013V2.76001H132.495V20.91H151.089Z" fill="white"/>
<path d="M179.277 2.76L164.98 19.11V27.135H157.497V19.035L142.829 2.76H152.386L158.164 9.51L158.905 10.335L159.868 11.46L160.831 12.51C161.043 12.7481 161.241 12.9986 161.424 13.26C161.646 12.96 162.016 12.435 162.461 11.91C162.905 11.385 163.572 10.485 164.461 9.435L169.943 2.685L179.277 2.76Z" fill="white"/>
<path d="M203.984 20.7C203.491 20.4924 202.962 20.3903 202.428 20.4C200.872 20.4 200.206 21.075 200.206 23.25C200.206 25.575 200.872 26.325 202.502 26.325C203.041 26.3162 203.572 26.1882 204.058 25.95L204.206 26.85C203.633 27.1482 202.998 27.3026 202.354 27.3C200.132 27.3 199.168 26.025 199.168 23.325C199.168 20.625 200.206 19.5 202.428 19.5C203.038 19.5161 203.64 19.6431 204.206 19.875L203.984 20.7Z" fill="white"/>
<path d="M208.058 27.3C205.836 27.3 204.947 26.175 204.947 23.4C204.947 20.625 205.836 19.5 208.058 19.5C210.281 19.5 211.17 20.625 211.17 23.4C211.17 26.175 210.281 27.3 208.058 27.3ZM208.058 20.4C206.577 20.4 206.058 21 206.058 23.325C206.058 25.65 206.651 26.25 208.058 26.25C209.466 26.25 210.058 25.575 210.058 23.325C210.058 21.075 209.54 20.4 208.058 20.4Z" fill="white"/>
<path d="M213.837 19.575L215.985 24.9L216.282 25.65L216.578 24.9L218.726 19.575H219.837V27.15H218.948V22.125V21.3L218.652 22.05L216.652 27.075H215.911L213.911 22.05L213.615 21.3V27.075H212.726V19.575H213.837Z" fill="white"/>
<path d="M224.282 24.3H222.8V27.15H221.763V19.575H224.208C226.06 19.575 226.801 20.325 226.801 21.9C226.801 23.475 226.134 24.3 224.282 24.3ZM224.282 20.475H222.8V23.475H224.282C225.319 23.475 225.838 23.175 225.838 21.975C225.838 20.775 225.319 20.475 224.282 20.475Z" fill="white"/>
<path d="M232.061 25.35H228.801L228.208 27.15H227.097L229.838 19.575H231.024L233.765 27.15H232.653L232.061 25.35ZM230.209 21.15L229.097 24.45H231.764L230.653 21.15L230.431 20.4L230.209 21.15Z" fill="white"/>
<path d="M238.432 23.775L240.358 27.15H239.173L237.469 24H235.987V27.15H235.024V19.575H237.543C239.172 19.575 239.913 20.25 239.913 21.75C239.975 22.2164 239.855 22.6889 239.579 23.067C239.302 23.4452 238.89 23.6992 238.432 23.775ZM237.469 20.475H235.987V23.1H237.469C238.432 23.1 238.876 22.725 238.876 21.75C238.876 20.775 238.432 20.475 237.469 20.475Z" fill="white"/>
<path d="M242.729 19.575H241.691V27.15H242.729V19.575Z" fill="white"/>
<path d="M246.507 27.3C245.728 27.2874 244.965 27.0814 244.284 26.7L244.432 25.8C245.033 26.179 245.725 26.3863 246.433 26.4C247.47 26.4 247.988 25.95 247.988 25.125C247.988 23.4 244.284 24.15 244.284 21.675C244.284 20.475 245.025 19.575 246.729 19.575C247.411 19.5904 248.087 19.717 248.729 19.95L248.581 20.85C248.015 20.6181 247.413 20.4911 246.803 20.475C245.692 20.475 245.247 21 245.247 21.6C245.247 23.25 248.951 22.5 248.951 25.05C249.025 26.4 248.173 27.3 246.507 27.3Z" fill="white"/>
<path d="M253.174 27.3C250.951 27.3 250.062 26.175 250.062 23.4C250.062 20.625 250.951 19.5 253.174 19.5C255.396 19.5 256.285 20.625 256.285 23.4C256.285 26.175 255.396 27.3 253.174 27.3ZM253.174 20.4C251.692 20.4 251.174 21 251.174 23.325C251.174 25.65 251.766 26.25 253.174 26.25C254.581 26.25 255.174 25.575 255.174 23.325C255.174 21.075 254.581 20.4 253.174 20.4Z" fill="white"/>
<path d="M262.656 27.15L259.101 21.975L258.656 21.3V27.15H257.767V19.575H258.73L262.508 25.275V24.45V19.575H263.397V27.15H262.656Z" fill="white"/>
<path d="M269.472 19.575L271.62 24.9L271.917 25.65L272.213 24.9L274.361 19.575H275.473V27.15H274.584V22.125V21.3L274.287 22.05L272.287 27.075H271.546L269.546 22.05L269.25 21.3V22.2V27.15H268.361V19.575H269.472Z" fill="white"/>
<path d="M281.621 25.35H278.362L277.769 27.15H276.658L279.399 19.575H280.584L283.325 27.15H282.251L281.621 25.35ZM279.695 21.15L278.584 24.45H281.251L280.14 21.15L279.917 20.4L279.695 21.15Z" fill="white"/>
<path d="M286.955 24.3H285.474V27.15H284.474V19.575H286.992C288.844 19.575 289.585 20.325 289.585 21.9C289.585 23.475 288.807 24.3 286.955 24.3ZM286.955 20.475H285.474V23.475H286.955C287.993 23.475 288.511 23.175 288.511 21.975C288.511 20.775 288.067 20.475 286.955 20.475Z" fill="white"/>
<path d="M206.28 12.45C205.383 12.8031 204.428 12.9812 203.465 12.975C200.28 12.975 199.094 11.325 199.094 8.10001C199.094 4.87501 200.428 3.22501 203.539 3.22501C204.423 3.2154 205.302 3.36786 206.132 3.67501L205.947 5.47501C205.229 5.23521 204.48 5.10873 203.724 5.10001C201.872 5.10001 201.354 5.77501 201.354 8.10001C201.354 10.425 201.872 11.1 203.502 11.1C203.828 11.0926 204.152 11.0421 204.465 10.95V7.72501H206.317L206.28 12.45Z" fill="white"/>
<path d="M211.762 12.075C211.491 12.3497 211.167 12.5647 210.81 12.7067C210.453 12.8486 210.071 12.9144 209.688 12.9C208.281 12.9 207.392 12.075 207.392 10.35C207.392 8.92499 208.355 7.94999 210.059 7.94999C210.537 7.93927 211.014 8.01547 211.466 8.17499V7.79999C211.466 7.04999 211.096 6.67499 210.059 6.67499C209.342 6.6642 208.633 6.81806 207.984 7.12499L207.836 5.54999C208.66 5.21036 209.54 5.03221 210.429 5.02499C212.651 5.02499 213.392 5.99999 213.392 8.09999V12.825H211.911L211.762 12.075ZM211.466 9.52499C211.133 9.40813 210.781 9.35721 210.429 9.37499C209.54 9.37499 209.17 9.74999 209.17 10.35C209.17 11.1 209.614 11.325 210.207 11.325C210.799 11.325 211.466 10.95 211.466 10.425V9.52499Z" fill="white"/>
<path d="M216.948 12.9C216.127 12.9304 215.311 12.7498 214.578 12.375L214.8 10.8C215.46 11.1578 216.2 11.3385 216.948 11.325C217.689 11.325 218.059 11.025 218.059 10.575C218.059 9.37499 214.578 10.05 214.578 7.42499C214.578 6.07499 215.467 5.09999 217.393 5.09999C218.132 5.097 218.864 5.25027 219.541 5.54999L219.393 7.12499C218.749 6.8985 218.074 6.77207 217.393 6.74999C216.726 6.74999 216.43 6.97499 216.43 7.42499C216.43 8.54999 219.837 7.87499 219.837 10.5C219.837 11.925 219.023 12.9 216.948 12.9Z" fill="white"/>
<path d="M231.394 5.17499L228.653 12.75H226.43L223.689 5.17499H225.764L227.171 10.05L227.468 11.025H227.542L227.838 10.05L229.32 5.17499H231.394Z" fill="white"/>
<path d="M234.209 12.9C233.388 12.9304 232.572 12.7498 231.838 12.375L232.061 10.8C232.721 11.1578 233.46 11.3385 234.209 11.325C234.95 11.325 235.32 11.025 235.32 10.575C235.32 9.37499 231.838 10.05 231.838 7.42499C231.838 6.07499 232.727 5.09999 234.653 5.09999C235.393 5.097 236.124 5.25027 236.802 5.54999L236.654 7.12499C236.009 6.8985 235.335 6.77207 234.653 6.74999C233.987 6.74999 233.69 6.97499 233.69 7.42499C233.69 8.54999 237.098 7.87499 237.098 10.5C237.098 11.925 236.32 12.9 234.209 12.9Z" fill="white"/>
<path d="M239.172 12.9C238.357 12.9 238.061 12.6 238.061 11.775C238.061 11.1 238.357 10.725 239.172 10.725C239.987 10.725 240.284 11.1 240.284 11.775C240.304 11.9277 240.29 12.0832 240.242 12.2294C240.193 12.3755 240.112 12.5083 240.004 12.6173C239.897 12.7263 239.765 12.8085 239.621 12.8576C239.477 12.9067 239.323 12.9212 239.172 12.9Z" fill="white"/>
<path d="M251.322 10.95L251.248 12.825H244.951V3.375H251.1L251.174 5.25H247.1V7.125H250.507V8.775H247.1V10.95H251.322Z" fill="white"/>
<path d="M252.655 12.75V2.99999L254.581 2.92499V12.75H252.655Z" fill="white"/>
<path d="M255.989 8.84999C255.989 6.44999 257.026 5.02499 259.323 5.02499C261.249 5.02499 262.434 6.14999 262.434 8.54999C262.45 8.852 262.425 9.15474 262.36 9.45H257.989C258.064 10.725 258.73 11.175 259.99 11.175C260.673 11.1664 261.349 11.0396 261.99 10.8L262.212 12.375C261.443 12.7228 260.61 12.9018 259.767 12.9C257.1 12.9 255.989 11.55 255.989 8.84999ZM260.582 8.17499C260.582 7.04999 260.064 6.59999 259.249 6.59999C258.286 6.59999 257.989 7.04999 257.841 8.17499H260.582Z" fill="white"/>
<path d="M268.361 7.05001C267.958 6.89642 267.531 6.82012 267.101 6.82501C265.694 6.82501 265.249 7.42501 265.249 9.00001C265.249 10.575 265.916 11.25 267.101 11.25C267.564 11.2755 268.026 11.1717 268.435 10.95L268.583 12.45C267.996 12.7829 267.328 12.939 266.657 12.9C264.434 12.9 263.249 11.625 263.249 9.00001C263.249 6.37501 264.286 5.10001 266.657 5.10001C267.261 5.10765 267.861 5.20882 268.435 5.40001L268.361 7.05001Z" fill="white"/>
<path d="M271.88 6.67499V10.575C271.88 11.175 272.176 11.4 272.769 11.4C272.969 11.416 273.171 11.3905 273.361 11.325L273.435 12.75C273.037 12.9169 272.607 12.9937 272.176 12.975C271.871 13.0031 271.563 12.9617 271.276 12.8536C270.988 12.7456 270.729 12.5738 270.515 12.3508C270.302 12.1278 270.141 11.8592 270.044 11.5649C269.947 11.2706 269.916 10.958 269.954 10.65V6.67499H269.139V5.17499H270.102L270.398 3.44999L271.88 3.29999V5.17499H273.584V6.59999H271.88V6.67499Z" fill="white"/>
<path d="M274.583 12.75V5.24999L276.139 5.17499L276.287 6.44999H276.361C276.537 6.04277 276.828 5.69727 277.197 5.45702C277.566 5.21677 277.997 5.09254 278.436 5.09999C278.726 5.1026 279.014 5.15327 279.288 5.24999L279.14 7.19999C278.877 7.10721 278.602 7.05659 278.325 7.04999C278.071 7.04797 277.82 7.10083 277.589 7.20502C277.357 7.3092 277.15 7.46231 276.982 7.65408C276.813 7.84584 276.688 8.07183 276.612 8.31689C276.537 8.56195 276.515 8.82043 276.547 9.07499V12.9H274.621L274.583 12.75Z" fill="white"/>
<path d="M281.51 4.35001C280.769 4.35001 280.399 4.12501 280.399 3.52501C280.399 2.92501 280.769 2.70001 281.51 2.70001C282.251 2.70001 282.621 3.00001 282.621 3.52501C282.621 4.05001 282.251 4.35001 281.51 4.35001ZM280.51 12.75V5.25001L282.51 5.17501V12.825H280.51V12.75Z" fill="white"/>
<path d="M288.955 7.05001C288.553 6.89642 288.126 6.82012 287.696 6.82501C286.288 6.82501 285.844 7.42501 285.844 9.00001C285.844 10.575 286.511 11.25 287.696 11.25C288.159 11.2755 288.621 11.1717 289.03 10.95L289.178 12.45C288.591 12.7829 287.923 12.939 287.252 12.9C285.029 12.9 283.844 11.625 283.844 9.00001C283.844 6.37501 284.881 5.10001 287.252 5.10001C287.856 5.10765 288.455 5.20882 289.03 5.40001L288.955 7.05001Z" fill="white"/>
<path d="M188.96 28.5C188.764 28.5 188.575 28.421 188.436 28.2803C188.297 28.1397 188.219 27.9489 188.219 27.75V2.25C188.219 2.05109 188.297 1.86032 188.436 1.71967C188.575 1.57902 188.764 1.5 188.96 1.5C189.157 1.5 189.345 1.57902 189.484 1.71967C189.623 1.86032 189.701 2.05109 189.701 2.25V27.75C189.701 27.9489 189.623 28.1397 189.484 28.2803C189.345 28.421 189.157 28.5 188.96 28.5Z" fill="white"/>
</svg>
