<svg width="220" height="80" viewBox="0 0 220 80" fill="none" xmlns="http://www.w3.org/2000/svg">
<path d="M142.999 53.8554C142.461 53.2937 141.815 52.8466 141.1 52.5412C140.385 52.2358 139.616 52.0783 138.838 52.0783C138.061 52.0783 137.291 52.2358 136.576 52.5412C135.861 52.8466 135.215 53.2937 134.678 53.8554C133.564 55.0024 132.941 56.5381 132.941 58.1368C132.936 58.9234 133.087 59.7032 133.385 60.4312C133.683 61.1591 134.123 61.8208 134.678 62.3778C135.219 62.9345 135.866 63.3782 136.58 63.6833C137.294 63.9883 138.062 64.1487 138.838 64.155C139.615 64.1528 140.384 63.9943 141.099 63.689C141.814 63.3837 142.46 62.9378 142.999 62.3778C143.558 61.8152 143.999 61.1468 144.298 60.4118C144.596 59.6767 144.745 58.8896 144.736 58.0964C144.701 56.5165 144.082 55.0056 142.999 53.8554V53.8554ZM140.818 60.1967C140.283 60.7348 139.557 61.0397 138.798 61.0449C138.422 61.0462 138.049 60.9718 137.702 60.8261C137.355 60.6804 137.041 60.4663 136.779 60.1967C136.236 59.6487 135.931 58.9084 135.931 58.1368C135.931 57.3652 136.236 56.6249 136.779 56.077C137.042 55.8084 137.356 55.595 137.703 55.4493C138.05 55.3037 138.422 55.2287 138.798 55.2287C139.175 55.2287 139.547 55.3037 139.894 55.4493C140.241 55.595 140.555 55.8084 140.818 56.077C141.361 56.6249 141.666 57.3652 141.666 58.1368C141.666 58.9084 141.361 59.6488 140.818 60.1967V60.1967Z" stroke="white" stroke-miterlimit="10"/>
<path d="M63.1879 48.0794H48.0012V48.1605C48.0012 50.503 48.0417 52.2803 48.0822 53.6131C48.1227 54.6228 48.1227 55.4307 48.1227 55.7942C48.1153 56.1501 48.1785 56.5039 48.3088 56.8352C48.439 57.1664 48.6338 57.4685 48.8816 57.724C49.1295 57.9794 49.4257 58.1831 49.7529 58.3233C50.08 58.4635 50.4318 58.5373 50.7877 58.5405H56.5231V58.0961C56.5133 56.6816 56.783 55.2791 57.3167 53.9691C57.8504 52.6591 58.6376 51.4674 59.6332 50.4625C60.6614 49.4562 61.8665 48.6483 63.1879 48.0794V48.0794Z" stroke="white" stroke-miterlimit="10"/>
<path d="M146.311 50.4625C147.307 51.4673 148.094 52.659 148.628 53.969C149.162 55.279 149.431 56.6816 149.421 58.0961V58.5405H169.334C169.69 58.5374 170.042 58.4636 170.369 58.3234C170.696 58.1833 170.993 57.9795 171.241 57.724C171.488 57.4686 171.683 57.1664 171.813 56.8351C171.944 56.5038 172.007 56.1499 171.999 55.794V48.0794H142.797C144.106 48.6489 145.298 49.457 146.311 50.4625V50.4625Z" stroke="white" stroke-miterlimit="10"/>
<path d="M71.3467 53.8554C70.8091 53.2937 70.1634 52.8466 69.4484 52.5412C68.7334 52.2358 67.964 52.0783 67.1865 52.0783C66.409 52.0783 65.6395 52.2358 64.9245 52.5412C64.2095 52.8466 63.5638 53.2937 63.0262 53.8554C61.9126 55.0024 61.2896 56.5381 61.2895 58.1368C61.2787 59.7376 61.9033 61.2773 63.0262 62.4182C63.5638 62.9799 64.2095 63.427 64.9245 63.7324C65.6395 64.0379 66.409 64.1953 67.1865 64.1953C67.964 64.1953 68.7334 64.0379 69.4484 63.7324C70.1634 63.427 70.8091 62.9799 71.3467 62.4182C72.4604 61.2712 73.0833 59.7355 73.0835 58.1368C73.0756 56.5396 72.4537 55.0067 71.3467 53.8554ZM69.1656 60.1967C68.9023 60.4652 68.588 60.6786 68.2413 60.8242C67.8945 60.9698 67.5222 61.0448 67.1461 61.0448C66.7699 61.0448 66.3976 60.9698 66.0508 60.8242C65.7041 60.6786 65.3898 60.4652 65.1265 60.1967C64.5832 59.6488 64.2784 58.9084 64.2784 58.1368C64.2784 57.3652 64.5832 56.6248 65.1265 56.0769C65.3898 55.8084 65.7041 55.595 66.0508 55.4493C66.3976 55.3037 66.7699 55.2287 67.1461 55.2287C67.5222 55.2287 67.8945 55.3037 68.2413 55.4493C68.5881 55.595 68.9023 55.8084 69.1656 56.0769C69.7089 56.6248 70.0138 57.3652 70.0138 58.1368C70.0138 58.9084 69.7089 59.6488 69.1656 60.1967Z" stroke="white" stroke-miterlimit="10"/>
<path d="M105.356 55.1478C105.243 55.2054 105.118 55.2333 104.992 55.2288C104.893 55.2368 104.793 55.2238 104.699 55.1906C104.605 55.1575 104.519 55.1049 104.446 55.0363C104.374 54.9678 104.317 54.8847 104.279 54.7927C104.24 54.7006 104.222 54.6015 104.225 54.5018V48.6045H99.943C99.8498 48.6039 99.7587 48.577 99.6802 48.527C99.6016 48.477 99.5387 48.4059 99.4986 48.3218C99.4413 48.2545 99.4122 48.1676 99.4176 48.0794H71.1448C72.4646 48.629 73.6598 49.4396 74.6587 50.4625C75.6543 51.4674 76.4415 52.6591 76.9752 53.9691C77.5089 55.2791 77.7786 56.6816 77.7688 58.0961V58.5405H128.216V58.0961C128.206 56.6816 128.476 55.279 129.01 53.969C129.543 52.659 130.331 51.4673 131.326 50.4625C132.332 49.4484 133.526 48.6391 134.84 48.0794H110.364C108.748 50.3814 107.132 52.6837 105.516 54.9861C105.476 55.0265 105.436 55.1073 105.356 55.1478Z" stroke="white" stroke-miterlimit="10"/>
<path d="M171.191 15.8077C170.688 15.3 170.007 15.01 169.293 15H65.0857C50.9894 15 48.364 32.7313 48.041 44.9696H101.316C103.254 42.2634 105.193 39.5168 107.132 36.8107C107.228 36.7052 107.347 36.6245 107.481 36.5753C107.615 36.5261 107.758 36.5099 107.899 36.528C107.958 36.5279 108.016 36.5393 108.07 36.5615C108.123 36.5838 108.172 36.6165 108.214 36.6578C108.255 36.6991 108.288 36.7481 108.31 36.8021C108.332 36.8561 108.344 36.9139 108.344 36.9723V43.1519H112.625C112.718 43.1526 112.809 43.1794 112.888 43.2295C112.966 43.2795 113.029 43.3506 113.069 43.4347C113.122 43.5486 113.15 43.6726 113.15 43.7982C113.15 43.9239 113.122 44.0479 113.069 44.1617C112.867 44.4445 112.665 44.7271 112.504 45.0099H171.918V17.7465C171.94 17.3903 171.887 17.0334 171.762 16.6993C171.636 16.3651 171.442 16.0613 171.191 15.8077V15.8077ZM59.7138 34.9527C59.5922 35.1547 57.8961 39.1533 57.3307 39.1533H55.3918C55.5944 34.7353 56.4801 30.3754 58.0172 26.2285C59.0269 23.7243 60.2787 21.8663 61.6523 21.8663H71.8308C71.9901 21.8618 72.1484 21.892 72.2948 21.9548C72.4413 22.0176 72.5724 22.1114 72.679 22.2298C72.9031 22.4564 73.033 22.7595 73.0425 23.078V33.741C73.047 33.9003 73.0168 34.0587 72.954 34.2051C72.8912 34.3516 72.7974 34.4827 72.679 34.5893C72.4524 34.8134 72.1493 34.9433 71.8308 34.9527H59.7138ZM74.537 41.8595H70.4171V38.7494H74.537V41.8595ZM97.1959 34.9527H84.2711C84.1118 34.9572 83.9534 34.927 83.807 34.8643C83.6605 34.8015 83.5294 34.7077 83.4228 34.5893C83.1986 34.3627 83.0687 34.0596 83.0593 33.741V23.0376C83.0548 22.8783 83.085 22.72 83.1478 22.5735C83.2106 22.4271 83.3044 22.2961 83.4228 22.1895C83.6494 21.9653 83.9525 21.8354 84.2711 21.8259H97.1959V34.9527ZM113.433 34.9527H100.266V21.8259H113.433V34.9527ZM129.629 34.9527H116.462V21.8259H129.629V34.9527ZM145.826 34.9527H132.658V21.8259H145.826V34.9527ZM164.688 33.7007C164.693 33.8599 164.662 34.0182 164.6 34.1647C164.537 34.3111 164.443 34.4422 164.325 34.5488C164.098 34.7729 163.795 34.9028 163.477 34.9123H148.855V21.8259H163.477C163.636 21.8215 163.794 21.8517 163.941 21.9144C164.087 21.9772 164.218 22.0711 164.325 22.1895C164.549 22.416 164.679 22.7191 164.688 23.0376V33.7007Z" stroke="white" stroke-miterlimit="10"/>
<path d="M104.992 55.2286C104.893 55.2365 104.793 55.2235 104.699 55.1904C104.605 55.1572 104.519 55.1046 104.446 55.0361C104.374 54.9675 104.317 54.8845 104.279 54.7924C104.24 54.7003 104.222 54.6012 104.225 54.5015V48.6046H99.9432C99.8501 48.604 99.759 48.5771 99.6804 48.5271C99.6018 48.4771 99.5389 48.4059 99.4989 48.3218C99.4159 48.2038 99.3733 48.0622 99.3773 47.918C99.3771 47.799 99.4203 47.6841 99.4989 47.5948C102.043 44.0002 104.629 40.405 107.173 36.8106C107.269 36.7052 107.389 36.6244 107.522 36.5752C107.656 36.526 107.799 36.5098 107.94 36.5279C107.999 36.5277 108.057 36.5391 108.111 36.5614C108.165 36.5837 108.214 36.6164 108.255 36.6577C108.296 36.699 108.329 36.748 108.351 36.802C108.374 36.8559 108.385 36.9138 108.385 36.9722V43.1519H112.666C112.759 43.1525 112.85 43.1794 112.929 43.2294C113.008 43.2794 113.07 43.3505 113.11 43.4346C113.164 43.5485 113.191 43.6725 113.191 43.7982C113.191 43.9238 113.164 44.0479 113.11 44.1617C110.566 47.7564 108.021 51.3915 105.517 54.9863C105.468 55.0593 105.397 55.1156 105.315 55.1478C105.219 55.2079 105.106 55.2361 104.992 55.2286Z" stroke="white" stroke-miterlimit="10"/>
</svg>
