<svg width="196" height="63" viewBox="0 0 196 63" fill="none" xmlns="http://www.w3.org/2000/svg">
<path d="M130.997 45.8554C130.46 45.2937 129.814 44.8466 129.099 44.5412C128.384 44.2358 127.615 44.0783 126.837 44.0783C126.06 44.0783 125.29 44.2358 124.575 44.5412C123.86 44.8466 123.214 45.2937 122.677 45.8554C121.563 47.0024 120.94 48.5381 120.94 50.1368C120.935 50.9234 121.086 51.7032 121.384 52.4312C121.682 53.1591 122.121 53.8208 122.677 54.3778C123.218 54.9345 123.865 55.3782 124.579 55.6833C125.293 55.9883 126.061 56.1487 126.837 56.155C127.614 56.1528 128.383 55.9943 129.098 55.689C129.813 55.3837 130.459 54.9378 130.997 54.3778C131.557 53.8152 131.998 53.1468 132.297 52.4118C132.595 51.6767 132.744 50.8896 132.735 50.0964C132.7 48.5165 132.081 47.0056 130.997 45.8554V45.8554ZM128.817 52.1967C128.282 52.7348 127.556 53.0397 126.797 53.0449C126.421 53.0462 126.048 52.9718 125.701 52.8261C125.354 52.6804 125.04 52.4663 124.778 52.1967C124.235 51.6487 123.93 50.9084 123.93 50.1368C123.93 49.3652 124.235 48.6249 124.778 48.077C125.041 47.8084 125.355 47.595 125.702 47.4493C126.049 47.3037 126.421 47.2287 126.797 47.2287C127.174 47.2287 127.546 47.3037 127.893 47.4493C128.239 47.595 128.554 47.8084 128.817 48.077C129.36 48.6249 129.665 49.3652 129.665 50.1368C129.665 50.9084 129.36 51.6488 128.817 52.1967V52.1967Z" stroke="white" stroke-miterlimit="10"/>
<path d="M51.1867 40.0794H36V40.1605C36 42.503 36.0405 44.2803 36.0811 45.6131C36.1216 46.6228 36.1216 47.4307 36.1216 47.7942C36.1141 48.1501 36.1773 48.5039 36.3076 48.8352C36.4379 49.1664 36.6326 49.4685 36.8805 49.724C37.1284 49.9794 37.4245 50.1831 37.7517 50.3233C38.0789 50.4635 38.4307 50.5373 38.7866 50.5405H44.522V50.0961C44.5121 48.6816 44.7818 47.2791 45.3155 45.9691C45.8492 44.6591 46.6365 43.4674 47.632 42.4625C48.6602 41.4562 49.8653 40.6483 51.1867 40.0794V40.0794Z" stroke="white" stroke-miterlimit="10"/>
<path d="M134.31 42.4625C135.305 43.4673 136.093 44.659 136.627 45.969C137.16 47.279 137.43 48.6816 137.42 50.0961V50.5405H157.333C157.689 50.5374 158.041 50.4636 158.368 50.3234C158.695 50.1833 158.991 49.9795 159.239 49.724C159.487 49.4686 159.682 49.1664 159.812 48.8351C159.943 48.5038 160.006 48.1499 159.998 47.794V40.0794H130.796C132.105 40.6489 133.296 41.457 134.31 42.4625V42.4625Z" stroke="white" stroke-miterlimit="10"/>
<path d="M59.3455 45.8554C58.808 45.2937 58.1622 44.8466 57.4472 44.5412C56.7323 44.2358 55.9628 44.0783 55.1853 44.0783C54.4078 44.0783 53.6384 44.2358 52.9234 44.5412C52.2084 44.8466 51.5626 45.2937 51.0251 45.8554C49.9114 47.0024 49.2884 48.5381 49.2883 50.1368C49.2775 51.7376 49.9021 53.2773 51.0251 54.4182C51.5626 54.9799 52.2084 55.427 52.9234 55.7324C53.6384 56.0379 54.4078 56.1953 55.1853 56.1953C55.9628 56.1953 56.7323 56.0379 57.4472 55.7324C58.1622 55.427 58.808 54.9799 59.3455 54.4182C60.4592 53.2712 61.0822 51.7355 61.0823 50.1368C61.0744 48.5396 60.4526 47.0067 59.3455 45.8554ZM57.1644 52.1967C56.9011 52.4652 56.5869 52.6786 56.2401 52.8242C55.8933 52.9698 55.521 53.0448 55.1449 53.0448C54.7688 53.0448 54.3965 52.9698 54.0497 52.8242C53.7029 52.6786 53.3887 52.4652 53.1254 52.1967C52.5821 51.6488 52.2772 50.9084 52.2772 50.1368C52.2772 49.3652 52.5821 48.6248 53.1254 48.0769C53.3887 47.8084 53.7029 47.595 54.0497 47.4493C54.3964 47.3037 54.7688 47.2287 55.1449 47.2287C55.521 47.2287 55.8934 47.3037 56.2401 47.4493C56.5869 47.595 56.9011 47.8084 57.1644 48.0769C57.7078 48.6248 58.0126 49.3652 58.0126 50.1368C58.0126 50.9084 57.7078 51.6488 57.1644 52.1967Z" stroke="white" stroke-miterlimit="10"/>
<path d="M93.3544 47.1478C93.2421 47.2054 93.1169 47.2333 92.9908 47.2288C92.8914 47.2368 92.7915 47.2238 92.6975 47.1906C92.6035 47.1575 92.5175 47.1049 92.4451 47.0363C92.3728 46.9678 92.3156 46.8847 92.2774 46.7927C92.2392 46.7006 92.2208 46.6015 92.2235 46.5018V40.6045H87.9418C87.8486 40.6039 87.7575 40.577 87.6789 40.527C87.6003 40.477 87.5374 40.4059 87.4974 40.3218C87.44 40.2545 87.411 40.1676 87.4163 40.0794H59.1436C60.4634 40.629 61.6586 41.4396 62.6575 42.4625C63.653 43.4674 64.4403 44.6591 64.974 45.9691C65.5077 47.2791 65.7774 48.6816 65.7676 50.0961V50.5405H116.215V50.0961C116.205 48.6816 116.475 47.279 117.008 45.969C117.542 44.659 118.33 43.4673 119.325 42.4625C120.331 41.4484 121.524 40.6391 122.839 40.0794H98.3624C96.7467 42.3814 95.1309 44.6837 93.5152 46.9861C93.4751 47.0265 93.4348 47.1073 93.3544 47.1478Z" stroke="white" stroke-miterlimit="10"/>
<path d="M159.19 7.80774C158.687 7.30003 158.006 7.00995 157.291 7H53.0845C38.9883 7 36.3629 24.7313 36.0398 36.9696H89.3145C91.2533 34.2634 93.192 31.5168 95.1307 28.8107C95.2265 28.7052 95.3462 28.6245 95.4798 28.5753C95.6134 28.5261 95.757 28.5099 95.8982 28.528C95.9566 28.5279 96.0144 28.5393 96.0684 28.5615C96.1223 28.5838 96.1713 28.6165 96.2126 28.6578C96.2539 28.6991 96.2866 28.7481 96.3089 28.8021C96.3311 28.8561 96.3425 28.9139 96.3424 28.9723V35.1519H100.624C100.717 35.1526 100.808 35.1794 100.887 35.2295C100.965 35.2795 101.028 35.3506 101.068 35.4347C101.121 35.5486 101.149 35.6726 101.149 35.7982C101.149 35.9239 101.121 36.0479 101.068 36.1617C100.866 36.4445 100.664 36.7271 100.503 37.0099H159.916V9.74646C159.939 9.39031 159.886 9.03342 159.761 8.69926C159.635 8.36511 159.441 8.06127 159.19 7.80774V7.80774ZM47.7126 26.9527C47.591 27.1547 45.895 31.1533 45.3295 31.1533H43.3906C43.5933 26.7353 44.4789 22.3754 46.016 18.2285C47.0257 15.7243 48.2775 13.8663 49.6512 13.8663H59.8296C59.9889 13.8618 60.1472 13.892 60.2937 13.9548C60.4401 14.0176 60.5712 14.1114 60.6778 14.2298C60.9019 14.4564 61.0318 14.7595 61.0414 15.078V25.741C61.0458 25.9003 61.0156 26.0587 60.9528 26.2051C60.8901 26.3516 60.7962 26.4827 60.6778 26.5893C60.4512 26.8134 60.1482 26.9433 59.8296 26.9527H47.7126ZM62.5358 33.8595H58.4159V30.7494H62.5358V33.8595ZM85.1947 26.9527H72.2699C72.1106 26.9572 71.9523 26.927 71.8058 26.8643C71.6594 26.8015 71.5283 26.7077 71.4216 26.5893C71.1975 26.3627 71.0676 26.0596 71.0581 25.741V15.0376C71.0536 14.8783 71.0839 14.72 71.1466 14.5735C71.2094 14.4271 71.3032 14.2961 71.4216 14.1895C71.6482 13.9653 71.9513 13.8354 72.2699 13.8259H85.1947V26.9527ZM101.432 26.9527H88.2644V13.8259H101.432V26.9527ZM117.628 26.9527H104.461V13.8259H117.628V26.9527ZM133.825 26.9527H120.657V13.8259H133.825V26.9527ZM152.687 25.7007C152.691 25.8599 152.661 26.0182 152.598 26.1647C152.536 26.3111 152.442 26.4422 152.323 26.5488C152.097 26.7729 151.794 26.9028 151.475 26.9123H136.854V13.8259H151.475C151.635 13.8215 151.793 13.8517 151.939 13.9144C152.086 13.9772 152.217 14.0711 152.323 14.1895C152.548 14.416 152.677 14.7191 152.687 15.0376V25.7007Z" stroke="white" stroke-miterlimit="10"/>
<path d="M92.9908 47.2286C92.8914 47.2365 92.7915 47.2235 92.6975 47.1904C92.6035 47.1572 92.5175 47.1046 92.4451 47.0361C92.3727 46.9675 92.3156 46.8845 92.2774 46.7924C92.2392 46.7003 92.2208 46.6012 92.2234 46.5015V40.6046H87.942C87.8488 40.604 87.7578 40.5771 87.6792 40.5271C87.6006 40.4771 87.5377 40.4059 87.4977 40.3218C87.4147 40.2038 87.3721 40.0622 87.3761 39.918C87.3759 39.799 87.4191 39.6841 87.4977 39.5948C90.0423 36.0002 92.6273 32.405 95.1719 28.8106C95.2676 28.7052 95.3873 28.6244 95.5209 28.5752C95.6545 28.526 95.798 28.5098 95.9393 28.5279C95.9976 28.5277 96.0555 28.5391 96.1095 28.5614C96.1634 28.5837 96.2125 28.6164 96.2537 28.6577C96.295 28.699 96.3277 28.748 96.35 28.802C96.3723 28.8559 96.3837 28.9138 96.3835 28.9722V35.1519H100.665C100.758 35.1525 100.849 35.1794 100.928 35.2294C101.006 35.2794 101.069 35.3505 101.109 35.4346C101.162 35.5485 101.19 35.6725 101.19 35.7982C101.19 35.9238 101.162 36.0479 101.109 36.1617C98.5647 39.7564 96.0201 43.3915 93.5158 46.9863C93.4663 47.0593 93.396 47.1156 93.3139 47.1478C93.2173 47.2079 93.1043 47.2361 92.9908 47.2286Z" stroke="white" stroke-miterlimit="10"/>
</svg>
