<svg width="32" height="28" viewBox="0 0 32 28" fill="none" xmlns="http://www.w3.org/2000/svg">
<path d="M28.8187 2.4136C27.2701 0.868039 25.1716 0 22.9837 0C20.7958 0 18.6973 0.868039 17.1487 2.4136L15.5187 3.9936L13.9287 2.4036C12.3695 0.932451 10.2995 0.125069 8.15601 0.152058C6.01252 0.179046 3.96348 1.03829 2.44186 2.54823C0.920229 4.05817 0.0452147 6.10053 0.00170364 8.24374C-0.0418074 10.387 0.749594 12.4631 2.20868 14.0336L3.81868 15.6636L15.5187 27.3336L27.1887 15.6636L28.8187 14.0736C29.5849 13.3083 30.1927 12.3995 30.6074 11.3992C31.0221 10.3988 31.2356 9.32651 31.2356 8.2436C31.2356 7.16069 31.0221 6.0884 30.6074 5.08804C30.1927 4.08769 29.5849 3.17889 28.8187 2.4136ZM11.3087 9.9036H20.2287C20.5843 9.81444 20.9086 9.62922 21.1661 9.36821C21.4236 9.10719 21.6044 8.78042 21.6887 8.4236C21.7469 7.99958 21.6773 7.56781 21.4887 7.1836C21.2875 6.79541 20.9691 6.4805 20.5787 6.2836C20.2664 6.13444 19.9247 6.05702 19.5787 6.05702C19.2326 6.05702 18.8909 6.13444 18.5787 6.2836C18.265 6.47112 18 6.73008 17.8054 7.03941C17.6108 7.34873 17.492 7.69966 17.4587 8.0636C17.438 8.15329 17.3855 8.23243 17.3109 8.28633C17.2363 8.34024 17.1447 8.36523 17.0531 8.35668C16.9614 8.34813 16.876 8.30661 16.8127 8.23983C16.7493 8.17305 16.7124 8.08556 16.7087 7.9936C16.753 7.5055 16.9143 7.03526 17.1788 6.62271C17.4434 6.21017 17.8035 5.86745 18.2287 5.6236C18.6409 5.42068 19.0942 5.31514 19.5537 5.31514C20.0131 5.31514 20.4665 5.42068 20.8787 5.6236C21.4129 5.88839 21.8474 6.31849 22.1177 6.84997C22.3879 7.38145 22.4794 7.98594 22.3787 8.5736C22.2685 9.09329 22.0036 9.56743 21.6187 9.9336C21.2484 10.3019 20.7796 10.5554 20.2687 10.6636H11.2687C11.2193 10.6649 11.1701 10.6564 11.124 10.6384C11.078 10.6204 11.036 10.5933 11.0006 10.5588C10.9651 10.5243 10.937 10.4831 10.9178 10.4375C10.8986 10.392 10.8887 10.343 10.8887 10.2936C10.8869 10.2393 10.8969 10.1853 10.9178 10.1352C10.9387 10.085 10.9701 10.04 11.0099 10.003C11.0497 9.96605 11.097 9.93805 11.1485 9.92091C11.2001 9.90376 11.2547 9.89786 11.3087 9.9036ZM18.6487 8.5236C18.6804 8.61908 18.6729 8.72323 18.6279 8.81321C18.5829 8.90319 18.5041 8.97166 18.4087 9.0036H18.2887C18.2119 9.00217 18.1374 8.97752 18.0749 8.93289C18.0124 8.88826 17.9649 8.82575 17.9387 8.7536C17.8426 8.46214 17.8252 8.15045 17.8884 7.85013C17.9517 7.54981 18.0932 7.27156 18.2987 7.0436C18.5155 6.80441 18.787 6.62126 19.09 6.50981C19.393 6.39836 19.7185 6.36192 20.0387 6.4036C20.2864 6.44538 20.5231 6.53692 20.7345 6.6727C20.9459 6.80848 21.1276 6.98568 21.2687 7.1936C21.3065 7.27642 21.3134 7.37007 21.288 7.45752C21.2626 7.54497 21.2067 7.62039 21.1303 7.67006C21.054 7.71972 20.9624 7.74033 20.8722 7.72814C20.7819 7.71594 20.6991 7.67175 20.6387 7.6036C20.5576 7.48075 20.4516 7.37631 20.3276 7.29706C20.2035 7.21781 20.0642 7.16553 19.9187 7.1436C19.721 7.12715 19.5221 7.15546 19.3369 7.22644C19.1516 7.29743 18.9848 7.40925 18.8487 7.5536C18.734 7.684 18.6552 7.84202 18.6202 8.0121C18.5851 8.18219 18.5949 8.35847 18.6487 8.5236ZM24.5287 17.7836C24.265 18.3176 23.8327 18.7499 23.2987 19.0136C22.8881 19.2163 22.4366 19.3224 21.9787 19.3236C21.5242 19.3208 21.0762 19.2148 20.6687 19.0136C20.2349 18.7738 19.8673 18.4302 19.5987 18.0136C19.3294 17.6037 19.1678 17.1325 19.1287 16.6436C19.1343 16.5523 19.1727 16.4661 19.2368 16.4008C19.3009 16.3355 19.3865 16.2956 19.4777 16.2883C19.5689 16.281 19.6596 16.3068 19.7333 16.3611C19.807 16.4153 19.8586 16.4943 19.8787 16.5836C19.9147 16.9453 20.0371 17.293 20.2355 17.5975C20.4338 17.902 20.7024 18.1545 21.0187 18.3336C21.3244 18.4745 21.6571 18.5474 21.9937 18.5474C22.3303 18.5474 22.6629 18.4745 22.9687 18.3336C23.3562 18.1361 23.6712 17.8211 23.8687 17.4336C24.0604 17.0432 24.1267 16.6031 24.0587 16.1736C23.9687 15.8165 23.7818 15.4912 23.5187 15.2336C23.2433 14.9643 22.8961 14.7803 22.5187 14.7036H13.6887C13.6343 14.7125 13.5786 14.7095 13.5256 14.6947C13.4725 14.68 13.4232 14.6539 13.3812 14.6182C13.3392 14.5825 13.3055 14.5382 13.2824 14.4882C13.2592 14.4381 13.2472 14.3837 13.2472 14.3286C13.2472 14.2735 13.2592 14.2191 13.2824 14.1691C13.3055 14.119 13.3392 14.0747 13.3812 14.039C13.4232 14.0033 13.4725 13.9772 13.5256 13.9625C13.5786 13.9477 13.6343 13.9447 13.6887 13.9536H22.6087C23.1466 14.0516 23.6438 14.3054 24.0387 14.6836C24.4162 15.0546 24.6858 15.5212 24.8187 16.0336C24.9172 16.633 24.8153 17.2481 24.5287 17.7836ZM20.1587 16.6936C20.1507 16.6007 20.1772 16.508 20.2331 16.4333C20.289 16.3587 20.3704 16.3071 20.4618 16.2886C20.5532 16.2701 20.6483 16.2858 20.7288 16.3328C20.8094 16.3799 20.8699 16.4549 20.8987 16.5436C20.9286 16.6861 20.9875 16.8209 21.0718 16.9396C21.1561 17.0583 21.264 17.1584 21.3887 17.2336C21.5669 17.3241 21.7639 17.3712 21.9637 17.3712C22.1635 17.3712 22.3605 17.3241 22.5387 17.2336C22.6902 17.1558 22.8194 17.0405 22.9139 16.8988C23.0084 16.757 23.0651 16.5934 23.0787 16.4236C23.0798 16.3736 23.0912 16.3244 23.1124 16.2791C23.1335 16.2338 23.1639 16.1934 23.2015 16.1604C23.2392 16.1275 23.2832 16.1028 23.331 16.0878C23.3787 16.0729 23.429 16.068 23.4787 16.0736C23.5273 16.0762 23.5749 16.0883 23.6188 16.1093C23.6628 16.1303 23.7021 16.1597 23.7346 16.196C23.7671 16.2322 23.7922 16.2745 23.8083 16.3204C23.8245 16.3663 23.8314 16.415 23.8287 16.4636C23.8071 16.7727 23.7029 17.0703 23.527 17.3254C23.3511 17.5805 23.1099 17.7836 22.8287 17.9136C22.5431 18.0445 22.2328 18.1127 21.9187 18.1136C21.5885 18.1171 21.2635 18.0307 20.9787 17.8636C20.7716 17.7323 20.5926 17.5613 20.4519 17.3605C20.3111 17.1597 20.2115 16.933 20.1587 16.6936ZM27.0087 12.9436H9.94868C9.89431 12.9525 9.83865 12.9495 9.78555 12.9347C9.73246 12.92 9.68321 12.8939 9.64122 12.8582C9.59923 12.8225 9.56549 12.7782 9.54236 12.7282C9.51922 12.6781 9.50724 12.6237 9.50724 12.5686C9.50724 12.5135 9.51922 12.4591 9.54236 12.4091C9.56549 12.359 9.59923 12.3147 9.64122 12.279C9.68321 12.2433 9.73246 12.2172 9.78555 12.2025C9.83865 12.1877 9.89431 12.1847 9.94868 12.1936H27.0087C27.4609 12.204 27.9103 12.1206 28.3285 11.9484C28.7468 11.7763 29.1248 11.5193 29.4387 11.1936C29.6626 10.9593 29.8352 10.6809 29.9454 10.3761C30.0556 10.0713 30.101 9.74692 30.0787 9.4236C30.0068 8.92102 29.7755 8.4548 29.4187 8.0936C29.15 7.82213 28.82 7.61931 28.4564 7.50226C28.0928 7.38522 27.7064 7.35739 27.3298 7.42114C26.9533 7.48488 26.5975 7.63833 26.2927 7.8685C25.988 8.09868 25.743 8.39883 25.5787 8.7436C25.3836 9.16146 25.3141 9.62699 25.3787 10.0836C25.3857 10.1323 25.383 10.1818 25.3706 10.2294C25.3583 10.277 25.3366 10.3216 25.3068 10.3607C25.277 10.3998 25.2397 10.4326 25.1971 10.4571C25.1545 10.4817 25.1075 10.4975 25.0587 10.5036C25.0098 10.5121 24.9598 10.5104 24.9116 10.4987C24.8635 10.4869 24.8183 10.4653 24.7788 10.4353C24.7394 10.4052 24.7066 10.3674 24.6825 10.3241C24.6584 10.2808 24.6435 10.2329 24.6387 10.1836C24.5522 9.58314 24.6462 8.97054 24.9087 8.4236C25.1971 7.81606 25.6742 7.31799 26.2687 7.0036C26.8609 6.69204 27.5366 6.57649 28.1987 6.6736C28.8638 6.77697 29.4777 7.09268 29.9487 7.5736C30.4279 8.04609 30.7343 8.66596 30.8187 9.3336C30.854 9.76392 30.7993 10.1969 30.6582 10.6049C30.517 11.013 30.2924 11.3871 29.9987 11.7036C29.6142 12.1072 29.1496 12.426 28.6347 12.6396C28.1198 12.8531 27.566 12.9567 27.0087 12.9436ZM26.6987 9.9436C26.716 9.99016 26.7237 10.0397 26.7215 10.0893C26.7192 10.139 26.707 10.1876 26.6855 10.2324C26.6641 10.2772 26.6338 10.3172 26.5966 10.3501C26.5593 10.3829 26.5158 10.4079 26.4687 10.4236H26.3487C26.269 10.4235 26.1914 10.3983 26.1268 10.3517C26.0621 10.305 26.0138 10.2392 25.9887 10.1636C25.8949 9.87117 25.8797 9.5592 25.9447 9.25904C26.0096 8.95889 26.1524 8.6811 26.3587 8.4536C26.5765 8.2162 26.8485 8.03494 27.1514 7.92525C27.4544 7.81557 27.7794 7.78069 28.0987 7.8236C28.3458 7.86324 28.5819 7.95396 28.792 8.08999C29.002 8.22601 29.1814 8.40435 29.3187 8.6136C29.3464 8.65472 29.3655 8.70099 29.375 8.74965C29.3845 8.79832 29.3841 8.8484 29.3738 8.8969C29.3635 8.94541 29.3436 8.99135 29.3153 9.03201C29.2869 9.07268 29.2507 9.10722 29.2087 9.1336C29.1248 9.18688 29.0234 9.2052 28.9263 9.18464C28.8291 9.16408 28.7438 9.10627 28.6887 9.0236C28.6111 8.8997 28.5074 8.7943 28.3847 8.71482C28.2621 8.63535 28.1235 8.58373 27.9787 8.5636C27.7807 8.54331 27.5807 8.56985 27.3948 8.64107C27.209 8.71229 27.0424 8.82619 26.9087 8.9736C26.787 9.106 26.7033 9.26877 26.6663 9.44476C26.6294 9.62074 26.6405 9.80344 26.6987 9.9736V9.9436Z" fill="#FF0000"/>
</svg>
