<svg width="196" height="63" viewBox="0 0 196 63" fill="none" xmlns="http://www.w3.org/2000/svg">
<path d="M5.45288 58.3133H3.66596C3.57405 58.3145 3.48284 58.2972 3.3977 58.2626C3.31256 58.228 3.23521 58.1767 3.17021 58.1117C3.10522 58.0467 3.05389 57.9694 3.01926 57.8842C2.98463 57.7991 2.9674 57.7079 2.96859 57.616V52.9092H1.70469C1.50968 52.9024 1.32379 52.825 1.18166 52.6913C1.11284 52.6244 1.06108 52.542 1.03074 52.451C1.0004 52.36 0.992366 52.2631 1.00732 52.1683L1.74828 37.6547C1.75512 37.4978 1.81482 37.3478 1.91769 37.2292C2.02056 37.1105 2.16055 37.0301 2.31489 37.001L21.7095 32.9042L26.7216 21.0057C26.776 20.8771 26.8669 20.7672 26.9831 20.6898C27.0994 20.6123 27.2357 20.5706 27.3754 20.5699H30.5139C31.8214 14.381 35.9619 10.0662 42.8916 7.79979C42.9586 7.7646 43.0342 7.74947 43.1095 7.7562H62.8965C62.9884 7.75499 63.0796 7.7722 63.1648 7.80682C63.2499 7.84143 63.3273 7.89274 63.3923 7.95773C63.4573 8.02272 63.5086 8.10007 63.5432 8.18521C63.5778 8.27036 63.5951 8.36158 63.5939 8.45348V48.4201C63.5951 48.512 63.5778 48.6033 63.5432 48.6884C63.5086 48.7736 63.4573 48.8509 63.3923 48.9159C63.3273 48.9809 63.2499 49.0322 63.1648 49.0668C63.0796 49.1015 62.9884 49.1187 62.8965 49.1175H23.1042C22.9807 49.1188 22.8591 49.0871 22.7518 49.0259C22.6446 48.9646 22.5556 48.8759 22.494 48.7688C21.2493 46.7963 19.3075 45.3648 17.0551 44.7593C14.8027 44.1537 12.4049 44.4185 10.3389 45.5009C8.27294 46.5834 6.69031 48.4041 5.90605 50.6007C5.12179 52.7972 5.19341 55.2086 6.10667 57.3547C6.15414 57.4588 6.17501 57.573 6.1674 57.6871C6.1598 57.8012 6.12395 57.9116 6.06308 58.0084C5.90655 58.1849 5.68796 58.2941 5.45288 58.3133V58.3133Z" stroke="white" stroke-miterlimit="10"/>
<path d="M43.1525 34.1247H26.5035C26.3923 34.1194 26.2837 34.0891 26.1858 34.0363C26.0878 33.9834 26.0029 33.9092 25.9374 33.8192C25.8698 33.726 25.8265 33.6175 25.8113 33.5034C25.7961 33.3893 25.8094 33.2732 25.8502 33.1656L29.3804 23.6643C29.4272 23.5271 29.515 23.4075 29.6319 23.3218C29.7488 23.2361 29.8892 23.1883 30.0342 23.1848H43.1961C43.288 23.1836 43.3792 23.2008 43.4644 23.2354C43.5495 23.2701 43.6269 23.3214 43.6919 23.3864C43.7569 23.4514 43.8082 23.5287 43.8428 23.6139C43.8774 23.699 43.8946 23.7903 43.8934 23.8822V33.384C43.8942 33.4816 43.8756 33.5783 43.8387 33.6685C43.8017 33.7588 43.7472 33.8408 43.6782 33.9097C43.6092 33.9786 43.5272 34.0332 43.437 34.0701C43.3467 34.107 43.25 34.1256 43.1525 34.1247V34.1247Z" stroke="white" stroke-miterlimit="10"/>
<path d="M67.9955 60.9284H50.6492C48.2522 60.9284 46.2906 59.4466 46.2906 57.5725V51.8195C46.2906 51.514 46.5962 51.2966 46.988 51.2966H67.9519C70.349 51.2966 72.3105 52.7784 72.3105 54.6525V57.5725C72.3538 59.4466 70.3926 60.9284 67.9955 60.9284Z" stroke="white" stroke-miterlimit="10"/>
<path d="M194.649 49.1176H185.104C184.988 49.1128 184.874 49.0782 184.775 49.0171C184.676 48.9561 184.594 48.8706 184.538 48.7689C183.891 47.7014 183.03 46.7789 182.01 46.059C180.99 45.3391 179.833 44.8372 178.611 44.5848C178.442 44.5517 178.291 44.4582 178.187 44.3217C178.082 44.1852 178.031 44.0153 178.043 43.8439C178.065 43.6704 178.146 43.5099 178.273 43.3904C178.401 43.2709 178.566 43.2 178.741 43.1902H194.692C194.784 43.189 194.875 43.2062 194.961 43.2408C195.046 43.2754 195.123 43.3267 195.188 43.3917C195.253 43.4567 195.304 43.534 195.339 43.6192C195.374 43.7043 195.391 43.7956 195.39 43.8875V48.3767C195.384 48.5714 195.305 48.7566 195.167 48.8944C195.029 49.0321 194.844 49.112 194.649 49.1176V49.1176ZM168.761 49.1176H166.233C166.117 49.1129 166.003 49.0784 165.904 49.0173C165.805 48.9562 165.723 48.8707 165.667 48.7689C165.02 47.7013 164.159 46.7786 163.139 46.0587C162.119 45.3388 160.961 44.837 159.739 44.5848C159.57 44.5515 159.42 44.4578 159.316 44.3214C159.211 44.185 159.16 44.0152 159.173 43.8439C159.193 43.6704 159.275 43.5098 159.402 43.3902C159.53 43.2707 159.695 43.1999 159.87 43.1902H175.168C175.345 43.1922 175.514 43.2604 175.643 43.3814C175.773 43.5024 175.852 43.6674 175.865 43.8439C175.884 44.0164 175.835 44.1895 175.73 44.3274C175.624 44.4653 175.47 44.5574 175.299 44.5848C174.074 44.8312 172.914 45.3307 171.893 46.0511C170.872 46.7716 170.013 47.6973 169.371 48.7689C169.309 48.876 169.22 48.9647 169.113 49.026C169.006 49.0873 168.884 49.1189 168.761 49.1176V49.1176ZM149.933 49.1176H112.756C112.639 49.1129 112.526 49.0784 112.427 49.0173C112.328 48.9562 112.246 48.8707 112.189 48.7689C111.542 47.7014 110.682 46.7789 109.662 46.059C108.642 45.3391 107.485 44.8372 106.262 44.5848C106.094 44.5517 105.943 44.4582 105.839 44.3217C105.734 44.1852 105.683 44.0153 105.695 43.8439C105.716 43.6704 105.798 43.5099 105.925 43.3904C106.053 43.2709 106.218 43.2 106.393 43.1902H156.34C156.516 43.1923 156.686 43.2606 156.815 43.3816C156.944 43.5025 157.023 43.6675 157.037 43.8439C157.055 44.0166 157.007 44.1898 156.901 44.3277C156.796 44.4656 156.641 44.5577 156.47 44.5848C155.245 44.8314 154.085 45.331 153.065 46.0515C152.044 46.7721 151.185 47.6978 150.543 48.7693C150.473 48.869 150.383 48.952 150.277 49.0123C150.172 49.0725 150.054 49.1085 149.933 49.1176V49.1176ZM96.4558 49.1176H93.9277C93.8114 49.1128 93.6982 49.0782 93.5991 49.0171C93.5 48.9561 93.4182 48.8706 93.3616 48.7689C92.7144 47.7013 91.854 46.7788 90.8341 46.0588C89.8142 45.3389 88.6567 44.8371 87.4341 44.5848C87.2629 44.5512 87.1102 44.4552 87.0058 44.3154C86.9014 44.1756 86.8526 44.0021 86.8689 43.8283C86.8852 43.6546 86.9654 43.4932 87.094 43.3752C87.2226 43.2573 87.3904 43.1914 87.5649 43.1902H102.863C103.04 43.1922 103.209 43.2604 103.339 43.3814C103.468 43.5024 103.547 43.6674 103.56 43.8439C103.579 44.0164 103.53 44.1895 103.425 44.3274C103.32 44.4653 103.165 44.5574 102.994 44.5848C101.769 44.8312 100.609 45.3307 99.5883 46.0511C98.5675 46.7716 97.7083 47.6973 97.0659 48.7689C96.9967 48.8689 96.906 48.9521 96.8004 49.0124C96.6948 49.0728 96.5771 49.1087 96.4558 49.1176V49.1176ZM77.5836 49.1176H67.4286C67.3367 49.1188 67.2455 49.1015 67.1603 49.0669C67.0752 49.0323 66.9979 48.9809 66.9329 48.9159C66.8679 48.851 66.8166 48.7736 66.782 48.6885C66.7473 48.6033 66.7301 48.5121 66.7313 48.4202V43.9311C66.7301 43.8392 66.7473 43.7479 66.782 43.6628C66.8166 43.5776 66.8679 43.5003 66.9329 43.4353C66.9979 43.3703 67.0752 43.319 67.1603 43.2844C67.2455 43.2497 67.3367 43.2325 67.4286 43.2337H83.9907C84.1676 43.2358 84.3374 43.304 84.4664 43.425C84.5955 43.5461 84.6745 43.711 84.688 43.8875C84.7066 44.06 84.6583 44.2331 84.5529 44.371C84.4475 44.5089 84.2932 44.6011 84.1218 44.6284C82.8971 44.8749 81.7372 45.3743 80.7166 46.0948C79.6959 46.8153 78.8369 47.7409 78.1945 48.8125C78.1235 48.9073 78.0313 48.9842 77.9253 49.0372C77.8193 49.0901 77.7024 49.1177 77.5839 49.1176H77.5836Z" stroke="white" stroke-miterlimit="10"/>
<path d="M122.126 49.1176V55.873C122.126 56.2564 122.202 56.6361 122.348 56.9904C122.495 57.3447 122.71 57.6666 122.981 57.9377C123.252 58.2089 123.574 58.424 123.929 58.5708C124.283 58.7175 124.662 58.793 125.046 58.793H142.435C143.21 58.793 143.953 58.4854 144.5 57.9378C145.048 57.3902 145.356 56.6475 145.356 55.873V52.0377C145.356 51.2632 145.048 50.5204 144.5 49.9728C143.953 49.4252 143.21 49.1176 142.435 49.1176H122.126Z" stroke="white" stroke-miterlimit="10"/>
<path d="M194.127 40.3136H67.4724C67.2822 40.3176 67.098 40.2468 66.9594 40.1164C66.8209 39.986 66.7391 39.8064 66.7316 39.6163V1.69859C66.7317 1.60333 66.7513 1.50909 66.7891 1.42167C66.827 1.33425 66.8823 1.25548 66.9517 1.19018C67.021 1.12489 67.103 1.07445 67.1925 1.04196C67.2821 1.00946 67.3773 0.9956 67.4724 1.00122H194.127C194.317 0.997348 194.501 1.06822 194.639 1.19861C194.778 1.329 194.86 1.50851 194.867 1.69859V39.5727C194.862 39.7674 194.782 39.9526 194.644 40.0904C194.506 40.2282 194.321 40.308 194.127 40.3136V40.3136Z" stroke="white" stroke-miterlimit="10"/>
<path d="M116.94 60.1878H114.63C114.558 60.1856 114.488 60.1691 114.422 60.1393C114.357 60.1095 114.298 60.067 114.25 60.0143C114.201 59.9616 114.163 59.8997 114.139 59.8323C114.114 59.7649 114.104 59.6933 114.107 59.6217V49.6841C114.104 49.6125 114.114 49.5409 114.139 49.4735C114.163 49.4061 114.201 49.3442 114.25 49.2915C114.298 49.2388 114.357 49.1963 114.422 49.1665C114.488 49.1367 114.558 49.1202 114.63 49.118H116.94C117.012 49.1202 117.082 49.1367 117.147 49.1665C117.213 49.1963 117.271 49.2388 117.32 49.2915C117.369 49.3442 117.406 49.4061 117.431 49.4735C117.455 49.5409 117.466 49.6125 117.463 49.6841V59.6213C117.466 59.693 117.455 59.7647 117.431 59.8321C117.406 59.8996 117.369 59.9615 117.32 60.0142C117.271 60.0669 117.213 60.1095 117.147 60.1393C117.082 60.1691 117.012 60.1856 116.94 60.1878V60.1878Z" stroke="white" stroke-miterlimit="10"/>
<path d="M104.823 61.5824C106.246 61.5825 107.636 61.1609 108.819 60.3708C110.001 59.5806 110.923 58.4576 111.468 57.1435C112.012 55.8295 112.154 54.3836 111.877 52.9886C111.6 51.5935 110.915 50.3121 109.909 49.3063C108.903 48.3006 107.622 47.6156 106.227 47.3381C104.832 47.0605 103.386 47.2029 102.072 47.7472C100.758 48.2914 99.6348 49.2132 98.8446 50.3958C98.0544 51.5784 97.6326 52.9688 97.6326 54.3911C97.6327 56.2982 98.3902 58.1273 99.7387 59.4759C101.087 60.8245 102.916 61.5822 104.823 61.5824V61.5824Z" stroke="white" stroke-miterlimit="10"/>
<path d="M104.823 58.1393C105.565 58.1393 106.289 57.9195 106.906 57.5076C107.522 57.0958 108.002 56.5104 108.286 55.8255C108.57 55.1406 108.644 54.387 108.499 53.6599C108.355 52.9328 107.998 52.265 107.474 51.7408C106.949 51.2166 106.282 50.8596 105.554 50.715C104.827 50.5703 104.074 50.6446 103.389 50.9283C102.704 51.212 102.119 51.6924 101.707 52.3088C101.295 52.9251 101.075 53.6498 101.075 54.3911C101.075 54.8834 101.172 55.3708 101.36 55.8255C101.549 56.2803 101.825 56.6935 102.173 57.0415C102.521 57.3896 102.934 57.6657 103.389 57.854C103.844 58.0424 104.331 58.1393 104.823 58.1393V58.1393Z" stroke="white" stroke-miterlimit="10"/>
<path d="M85.9518 61.5824C87.3741 61.5824 88.7644 61.1606 89.947 60.3704C91.1296 59.5803 92.0514 58.4571 92.5957 57.1431C93.1399 55.8291 93.2824 54.3831 93.0049 52.9882C92.7274 51.5932 92.0425 50.3118 91.0368 49.3061C90.0311 48.3004 88.7497 47.6155 87.3547 47.338C85.9597 47.0605 84.5138 47.2029 83.1998 47.7472C81.8858 48.2915 80.7626 49.2133 79.9724 50.3959C79.1823 51.5785 78.7605 52.9688 78.7605 54.3911C78.7605 56.2984 79.5181 58.1275 80.8668 59.4761C82.2154 60.8247 84.0445 61.5824 85.9518 61.5824Z" stroke="white" stroke-miterlimit="10"/>
<path d="M85.9515 58.1393C86.6929 58.1393 87.4175 57.9195 88.0339 57.5077C88.6503 57.0958 89.1308 56.5105 89.4145 55.8256C89.6982 55.1407 89.7724 54.387 89.6278 53.66C89.4832 52.9329 89.1262 52.265 88.602 51.7408C88.0778 51.2166 87.41 50.8596 86.6829 50.715C85.9558 50.5703 85.2022 50.6446 84.5173 50.9283C83.8324 51.2119 83.247 51.6924 82.8351 52.3087C82.4233 52.9251 82.2034 53.6498 82.2034 54.3911C82.2034 55.3852 82.5983 56.3386 83.3012 57.0415C84.0041 57.7444 84.9575 58.1393 85.9515 58.1393Z" stroke="white" stroke-miterlimit="10"/>
<path d="M15.2155 61.5824C16.6378 61.5824 18.0282 61.1606 19.2108 60.3704C20.3934 59.5803 21.3151 58.4571 21.8594 57.1431C22.4037 55.8291 22.5461 54.3831 22.2686 52.9882C21.9911 51.5932 21.3062 50.3118 20.3005 49.3061C19.2948 48.3004 18.0134 47.6155 16.6185 47.338C15.2235 47.0605 13.7776 47.2029 12.4635 47.7472C11.1495 48.2915 10.0264 49.2133 9.23618 50.3959C8.44599 51.5785 8.02423 52.9688 8.02423 54.3911C8.02423 56.2984 8.78188 58.1275 10.1305 59.4761C11.4791 60.8247 13.3083 61.5824 15.2155 61.5824Z" stroke="white" stroke-miterlimit="10"/>
<path d="M15.2153 58.1393C15.9566 58.1393 16.6813 57.9195 17.2977 57.5076C17.9141 57.0958 18.3945 56.5104 18.6782 55.8255C18.9619 55.1406 19.0361 54.387 18.8915 53.6599C18.7468 52.9328 18.3899 52.265 17.8657 51.7408C17.3415 51.2166 16.6736 50.8596 15.9465 50.715C15.2195 50.5703 14.4658 50.6446 13.7809 50.9283C13.096 51.212 12.5106 51.6924 12.0988 52.3088C11.6869 52.9251 11.4671 53.6498 11.4671 54.3911C11.4671 55.3852 11.862 56.3386 12.5649 57.0415C13.2678 57.7444 14.2212 58.1393 15.2153 58.1393Z" stroke="white" stroke-miterlimit="10"/>
<path d="M158.214 61.5824C159.636 61.5823 161.026 61.1605 162.209 60.3703C163.391 59.58 164.313 58.4569 164.857 57.1428C165.402 55.8288 165.544 54.3829 165.266 52.9879C164.989 51.593 164.304 50.3117 163.298 49.306C162.293 48.3003 161.011 47.6154 159.616 47.338C158.221 47.0605 156.775 47.203 155.461 47.7473C154.147 48.2916 153.024 49.2133 152.234 50.3959C151.444 51.5785 151.022 52.9688 151.022 54.3911C151.022 55.3355 151.208 56.2707 151.57 57.1432C151.931 58.0157 152.461 58.8085 153.128 59.4763C153.796 60.144 154.589 60.6737 155.462 61.0351C156.334 61.3965 157.269 61.5825 158.214 61.5824V61.5824Z" stroke="white" stroke-miterlimit="10"/>
<path d="M158.213 58.1393C158.954 58.1393 159.679 57.9195 160.295 57.5076C160.912 57.0958 161.392 56.5104 161.676 55.8255C161.959 55.1406 162.034 54.387 161.889 53.6599C161.744 52.9328 161.387 52.265 160.863 51.7408C160.339 51.2166 159.671 50.8596 158.944 50.715C158.217 50.5703 157.463 50.6446 156.778 50.9283C156.094 51.212 155.508 51.6924 155.096 52.3088C154.684 52.9251 154.465 53.6498 154.465 54.3911C154.465 54.8834 154.562 55.3708 154.75 55.8255C154.938 56.2803 155.214 56.6935 155.562 57.0416C155.91 57.3896 156.324 57.6657 156.778 57.8541C157.233 58.0424 157.721 58.1393 158.213 58.1393V58.1393Z" stroke="white" stroke-miterlimit="10"/>
<path d="M177.042 61.5824C178.464 61.5823 179.854 61.1605 181.037 60.3703C182.219 59.58 183.141 58.4569 183.685 57.1428C184.229 55.8288 184.372 54.3829 184.094 52.9879C183.817 51.593 183.132 50.3117 182.126 49.306C181.12 48.3003 179.839 47.6154 178.444 47.338C177.049 47.0605 175.603 47.203 174.289 47.7473C172.975 48.2916 171.852 49.2133 171.062 50.3959C170.272 51.5785 169.85 52.9688 169.85 54.3911C169.85 55.3355 170.036 56.2707 170.397 57.1432C170.759 58.0157 171.289 58.8085 171.956 59.4763C172.624 60.144 173.417 60.6737 174.289 61.0351C175.162 61.3965 176.097 61.5825 177.042 61.5824Z" stroke="white" stroke-miterlimit="10"/>
<path d="M177.041 58.1393C177.782 58.1393 178.507 57.9195 179.123 57.5076C179.739 57.0957 180.22 56.5103 180.504 55.8254C180.787 55.1406 180.861 54.3869 180.717 53.6598C180.572 52.9328 180.215 52.2649 179.691 51.7407C179.167 51.2166 178.499 50.8596 177.772 50.715C177.045 50.5703 176.291 50.6446 175.606 50.9283C174.921 51.212 174.336 51.6924 173.924 52.3088C173.512 52.9251 173.292 53.6498 173.292 54.3911C173.292 54.8834 173.389 55.3708 173.578 55.8256C173.766 56.2803 174.042 56.6935 174.39 57.0416C174.738 57.3896 175.151 57.6657 175.606 57.8541C176.061 58.0424 176.548 58.1394 177.041 58.1393V58.1393Z" stroke="white" stroke-miterlimit="10"/>
<path d="M42.586 59.3598H26.0242C25.8695 59.3604 25.7162 59.3304 25.5731 59.2715C25.4301 59.2126 25.3001 59.1259 25.1907 59.0165C25.0813 58.9071 24.9947 58.7772 24.9357 58.6341C24.8768 58.4911 24.8468 58.3377 24.8475 58.183V53.476C24.8468 53.3212 24.8768 53.1679 24.9357 53.0249C24.9946 52.8818 25.0813 52.7518 25.1907 52.6424C25.3001 52.533 25.4301 52.4463 25.5731 52.3874C25.7162 52.3285 25.8695 52.2985 26.0242 52.2991H42.586C42.7408 52.2984 42.8942 52.3284 43.0373 52.3873C43.1805 52.4462 43.3105 52.5329 43.42 52.6424C43.5294 52.7519 43.6161 52.8819 43.675 53.0251C43.734 53.1682 43.7639 53.3216 43.7632 53.4764V58.1835C43.7638 58.3382 43.7337 58.4915 43.6748 58.6345C43.6158 58.7776 43.5291 58.9075 43.4196 59.0169C43.3102 59.1262 43.1802 59.2128 43.0371 59.2717C42.894 59.3305 42.7407 59.3605 42.586 59.3598V59.3598Z" stroke="white" stroke-miterlimit="10"/>
<path d="M122.959 33.2185C122.837 33.2283 122.714 33.2123 122.599 33.1716C122.483 33.1308 122.377 33.0662 122.288 32.9819C122.199 32.8976 122.129 32.7956 122.082 32.6824C122.035 32.5693 122.013 32.4475 122.016 32.325V25.0776H116.754C116.64 25.0769 116.528 25.0439 116.431 24.9824C116.335 24.921 116.257 24.8336 116.208 24.7302C116.106 24.5851 116.054 24.411 116.059 24.2338C116.059 24.0877 116.112 23.9464 116.208 23.8367C119.336 19.4187 122.512 15.0009 125.64 10.5829C125.757 10.4533 125.904 10.3541 126.069 10.2936C126.233 10.2331 126.409 10.2132 126.583 10.2355C126.655 10.2353 126.726 10.2493 126.792 10.2767C126.858 10.3041 126.919 10.3443 126.969 10.395C127.02 10.4458 127.06 10.506 127.088 10.5724C127.115 10.6387 127.129 10.7098 127.129 10.7815V18.3762H132.391C132.505 18.377 132.617 18.41 132.714 18.4715C132.81 18.533 132.887 18.6204 132.937 18.7237C133.002 18.8636 133.036 19.0161 133.036 19.1705C133.036 19.3249 133.002 19.4774 132.937 19.6173C129.809 24.0351 126.682 28.5027 123.604 32.9205C123.544 33.0103 123.457 33.0795 123.356 33.1191C123.238 33.1931 123.099 33.2278 122.959 33.2185Z" stroke="white" stroke-miterlimit="10"/>
</svg>
