<svg width="220" height="80" viewBox="0 0 220 80" fill="none" xmlns="http://www.w3.org/2000/svg">
<path d="M17.4529 67.3133H15.666C15.5741 67.3145 15.4828 67.2972 15.3977 67.2626C15.3126 67.228 15.2352 67.1767 15.1702 67.1117C15.1052 67.0467 15.0539 66.9694 15.0193 66.8842C14.9846 66.7991 14.9674 66.7079 14.9686 66.616V61.9092H13.7047C13.5097 61.9024 13.3238 61.825 13.1817 61.6913C13.1128 61.6244 13.0611 61.542 13.0307 61.451C13.0004 61.36 12.9924 61.2631 13.0073 61.1683L13.7483 46.6547C13.7551 46.4978 13.8148 46.3478 13.9177 46.2292C14.0206 46.1105 14.1605 46.0301 14.3149 46.001L33.7095 41.9042L38.7216 30.0057C38.776 29.8771 38.8669 29.7672 38.9831 29.6898C39.0994 29.6123 39.2357 29.5706 39.3754 29.5699H42.5139C43.8214 23.381 47.9619 19.0662 54.8916 16.7998C54.9586 16.7646 55.0342 16.7495 55.1095 16.7562H74.8965C74.9884 16.755 75.0796 16.7722 75.1648 16.8068C75.2499 16.8414 75.3273 16.8927 75.3923 16.9577C75.4573 17.0227 75.5086 17.1001 75.5432 17.1852C75.5778 17.2704 75.5951 17.3616 75.5939 17.4535V57.4201C75.5951 57.512 75.5778 57.6033 75.5432 57.6884C75.5086 57.7736 75.4573 57.8509 75.3923 57.9159C75.3273 57.9809 75.2499 58.0322 75.1648 58.0668C75.0796 58.1015 74.9884 58.1187 74.8965 58.1175H35.1042C34.9807 58.1188 34.8591 58.0871 34.7518 58.0259C34.6446 57.9646 34.5556 57.8759 34.494 57.7688C33.2493 55.7963 31.3075 54.3648 29.0551 53.7593C26.8027 53.1537 24.4049 53.4185 22.3389 54.5009C20.2729 55.5834 18.6903 57.4041 17.906 59.6007C17.1218 61.7972 17.1934 64.2086 18.1067 66.3547C18.1541 66.4588 18.175 66.573 18.1674 66.6871C18.1598 66.8012 18.1239 66.9116 18.0631 67.0084C17.9065 67.1849 17.688 67.2941 17.4529 67.3133V67.3133Z" stroke="white" stroke-miterlimit="10"/>
<path d="M55.1525 43.1247H38.5035C38.3923 43.1194 38.2837 43.0891 38.1858 43.0363C38.0878 42.9834 38.0029 42.9092 37.9374 42.8192C37.8698 42.726 37.8265 42.6175 37.8113 42.5034C37.7961 42.3893 37.8094 42.2732 37.8502 42.1656L41.3804 32.6643C41.4272 32.5271 41.515 32.4075 41.6319 32.3218C41.7488 32.2361 41.8892 32.1883 42.0342 32.1848H55.1961C55.288 32.1836 55.3792 32.2008 55.4644 32.2354C55.5495 32.2701 55.6269 32.3214 55.6919 32.3864C55.7569 32.4514 55.8082 32.5287 55.8428 32.6139C55.8774 32.699 55.8946 32.7903 55.8934 32.8822V42.384C55.8942 42.4816 55.8756 42.5783 55.8387 42.6685C55.8017 42.7588 55.7472 42.8408 55.6782 42.9097C55.6092 42.9786 55.5272 43.0332 55.437 43.0701C55.3467 43.107 55.25 43.1256 55.1525 43.1247V43.1247Z" stroke="white" stroke-miterlimit="10"/>
<path d="M79.9955 69.9284H62.6492C60.2522 69.9284 58.2906 68.4466 58.2906 66.5725V60.8195C58.2906 60.514 58.5962 60.2966 58.988 60.2966H79.9519C82.349 60.2966 84.3105 61.7784 84.3105 63.6525V66.5725C84.3538 68.4466 82.3926 69.9284 79.9955 69.9284Z" stroke="white" stroke-miterlimit="10"/>
<path d="M206.649 58.1176H197.104C196.988 58.1128 196.874 58.0782 196.775 58.0171C196.676 57.9561 196.594 57.8706 196.538 57.7689C195.891 56.7014 195.03 55.7789 194.01 55.059C192.99 54.3391 191.833 53.8372 190.611 53.5848C190.442 53.5517 190.291 53.4582 190.187 53.3217C190.082 53.1852 190.031 53.0153 190.043 52.8439C190.065 52.6704 190.146 52.5099 190.273 52.3904C190.401 52.2709 190.566 52.2 190.741 52.1902H206.692C206.784 52.189 206.875 52.2062 206.961 52.2408C207.046 52.2754 207.123 52.3267 207.188 52.3917C207.253 52.4567 207.304 52.534 207.339 52.6192C207.374 52.7043 207.391 52.7956 207.39 52.8875V57.3767C207.384 57.5714 207.305 57.7566 207.167 57.8944C207.029 58.0321 206.844 58.112 206.649 58.1176V58.1176ZM180.761 58.1176H178.233C178.117 58.1129 178.003 58.0784 177.904 58.0173C177.805 57.9562 177.723 57.8707 177.667 57.7689C177.02 56.7013 176.159 55.7786 175.139 55.0587C174.119 54.3388 172.961 53.837 171.739 53.5848C171.57 53.5515 171.42 53.4578 171.316 53.3214C171.211 53.185 171.16 53.0152 171.173 52.8439C171.193 52.6704 171.275 52.5098 171.402 52.3902C171.53 52.2707 171.695 52.1999 171.87 52.1902H187.168C187.345 52.1922 187.514 52.2604 187.643 52.3814C187.773 52.5024 187.852 52.6674 187.865 52.8439C187.884 53.0164 187.835 53.1895 187.73 53.3274C187.624 53.4653 187.47 53.5574 187.299 53.5848C186.074 53.8312 184.914 54.3307 183.893 55.0511C182.872 55.7716 182.013 56.6973 181.371 57.7689C181.309 57.876 181.22 57.9647 181.113 58.026C181.006 58.0873 180.884 58.1189 180.761 58.1176V58.1176ZM161.933 58.1176H124.756C124.639 58.1129 124.526 58.0784 124.427 58.0173C124.328 57.9562 124.246 57.8707 124.189 57.7689C123.542 56.7014 122.682 55.7789 121.662 55.059C120.642 54.3391 119.485 53.8372 118.262 53.5848C118.094 53.5517 117.943 53.4582 117.839 53.3217C117.734 53.1852 117.683 53.0153 117.695 52.8439C117.716 52.6704 117.798 52.5099 117.925 52.3904C118.053 52.2709 118.218 52.2 118.393 52.1902H168.34C168.516 52.1923 168.686 52.2606 168.815 52.3816C168.944 52.5025 169.023 52.6675 169.037 52.8439C169.055 53.0166 169.007 53.1898 168.901 53.3277C168.796 53.4656 168.641 53.5577 168.47 53.5848C167.245 53.8314 166.085 54.331 165.065 55.0515C164.044 55.7721 163.185 56.6978 162.543 57.7693C162.473 57.869 162.383 57.952 162.277 58.0123C162.172 58.0725 162.054 58.1085 161.933 58.1176V58.1176ZM108.456 58.1176H105.928C105.811 58.1128 105.698 58.0782 105.599 58.0171C105.5 57.9561 105.418 57.8706 105.362 57.7689C104.714 56.7013 103.854 55.7788 102.834 55.0588C101.814 54.3389 100.657 53.8371 99.4341 53.5848C99.2629 53.5512 99.1102 53.4552 99.0058 53.3154C98.9014 53.1756 98.8526 53.0021 98.8689 52.8283C98.8852 52.6546 98.9654 52.4932 99.094 52.3752C99.2226 52.2573 99.3904 52.1914 99.5649 52.1902H114.863C115.04 52.1922 115.209 52.2604 115.339 52.3814C115.468 52.5024 115.547 52.6674 115.56 52.8439C115.579 53.0164 115.53 53.1895 115.425 53.3274C115.32 53.4653 115.165 53.5574 114.994 53.5848C113.769 53.8312 112.609 54.3307 111.588 55.0511C110.567 55.7716 109.708 56.6973 109.066 57.7689C108.997 57.8689 108.906 57.9521 108.8 58.0124C108.695 58.0728 108.577 58.1087 108.456 58.1176V58.1176ZM89.5836 58.1176H79.4286C79.3367 58.1188 79.2455 58.1015 79.1603 58.0669C79.0752 58.0323 78.9979 57.9809 78.9329 57.9159C78.8679 57.851 78.8166 57.7736 78.782 57.6885C78.7473 57.6033 78.7301 57.5121 78.7313 57.4202V52.9311C78.7301 52.8392 78.7473 52.7479 78.782 52.6628C78.8166 52.5776 78.8679 52.5003 78.9329 52.4353C78.9979 52.3703 79.0752 52.319 79.1603 52.2844C79.2455 52.2497 79.3367 52.2325 79.4286 52.2337H95.9907C96.1676 52.2358 96.3374 52.304 96.4664 52.425C96.5955 52.5461 96.6745 52.711 96.688 52.8875C96.7066 53.06 96.6583 53.2331 96.5529 53.371C96.4475 53.5089 96.2932 53.6011 96.1218 53.6284C94.8971 53.8749 93.7372 54.3743 92.7166 55.0948C91.6959 55.8153 90.8369 56.7409 90.1945 57.8125C90.1235 57.9073 90.0313 57.9842 89.9253 58.0372C89.8193 58.0901 89.7024 58.1177 89.5839 58.1176H89.5836Z" stroke="white" stroke-miterlimit="10"/>
<path d="M134.126 58.1176V64.873C134.126 65.2564 134.202 65.6361 134.348 65.9904C134.495 66.3447 134.71 66.6666 134.981 66.9377C135.252 67.2089 135.574 67.424 135.929 67.5708C136.283 67.7175 136.662 67.793 137.046 67.793H154.435C155.21 67.793 155.953 67.4854 156.5 66.9378C157.048 66.3902 157.356 65.6475 157.356 64.873V61.0377C157.356 60.2632 157.048 59.5204 156.5 58.9728C155.953 58.4252 155.21 58.1176 154.435 58.1176H134.126Z" stroke="white" stroke-miterlimit="10"/>
<path d="M206.127 49.3136H79.4724C79.2822 49.3176 79.098 49.2468 78.9594 49.1164C78.8209 48.986 78.7391 48.8064 78.7316 48.6163V10.6986C78.7317 10.6033 78.7513 10.5091 78.7891 10.4217C78.827 10.3343 78.8823 10.2555 78.9517 10.1902C79.021 10.1249 79.103 10.0745 79.1925 10.042C79.2821 10.0095 79.3773 9.9956 79.4724 10.0012H206.127C206.317 9.99735 206.501 10.0682 206.639 10.1986C206.778 10.329 206.86 10.5085 206.867 10.6986V48.5727C206.862 48.7674 206.782 48.9526 206.644 49.0904C206.506 49.2282 206.321 49.308 206.127 49.3136V49.3136Z" stroke="white" stroke-miterlimit="10"/>
<path d="M128.94 69.1878H126.63C126.558 69.1856 126.488 69.1691 126.422 69.1393C126.357 69.1095 126.298 69.067 126.25 69.0143C126.201 68.9616 126.163 68.8997 126.139 68.8323C126.114 68.7649 126.104 68.6933 126.107 68.6217V58.6841C126.104 58.6125 126.114 58.5409 126.139 58.4735C126.163 58.4061 126.201 58.3442 126.25 58.2915C126.298 58.2388 126.357 58.1963 126.422 58.1665C126.488 58.1367 126.558 58.1202 126.63 58.118H128.94C129.012 58.1202 129.082 58.1367 129.147 58.1665C129.213 58.1963 129.271 58.2388 129.32 58.2915C129.369 58.3442 129.406 58.4061 129.431 58.4735C129.455 58.5409 129.466 58.6125 129.463 58.6841V68.6213C129.466 68.693 129.455 68.7647 129.431 68.8321C129.406 68.8996 129.369 68.9615 129.32 69.0142C129.271 69.0669 129.213 69.1095 129.147 69.1393C129.082 69.1691 129.012 69.1856 128.94 69.1878V69.1878Z" stroke="white" stroke-miterlimit="10"/>
<path d="M116.823 70.5824C118.246 70.5825 119.636 70.1609 120.819 69.3708C122.001 68.5806 122.923 67.4576 123.468 66.1435C124.012 64.8295 124.154 63.3836 123.877 61.9886C123.6 60.5935 122.915 59.3121 121.909 58.3063C120.903 57.3006 119.622 56.6156 118.227 56.3381C116.832 56.0605 115.386 56.2029 114.072 56.7472C112.758 57.2914 111.635 58.2132 110.845 59.3958C110.054 60.5784 109.633 61.9688 109.633 63.3911C109.633 65.2982 110.39 67.1273 111.739 68.4759C113.087 69.8245 114.916 70.5822 116.823 70.5824V70.5824Z" stroke="white" stroke-miterlimit="10"/>
<path d="M116.823 67.1393C117.565 67.1393 118.289 66.9195 118.906 66.5076C119.522 66.0958 120.002 65.5104 120.286 64.8255C120.57 64.1406 120.644 63.387 120.499 62.6599C120.355 61.9328 119.998 61.265 119.474 60.7408C118.949 60.2166 118.282 59.8596 117.554 59.715C116.827 59.5703 116.074 59.6446 115.389 59.9283C114.704 60.212 114.119 60.6924 113.707 61.3088C113.295 61.9251 113.075 62.6498 113.075 63.3911C113.075 63.8834 113.172 64.3708 113.36 64.8255C113.549 65.2803 113.825 65.6935 114.173 66.0415C114.521 66.3896 114.934 66.6657 115.389 66.854C115.844 67.0424 116.331 67.1393 116.823 67.1393V67.1393Z" stroke="white" stroke-miterlimit="10"/>
<path d="M97.9518 70.5824C99.3741 70.5824 100.764 70.1606 101.947 69.3704C103.13 68.5803 104.051 67.4571 104.596 66.1431C105.14 64.8291 105.282 63.3831 105.005 61.9882C104.727 60.5932 104.042 59.3118 103.037 58.3061C102.031 57.3004 100.75 56.6155 99.3547 56.338C97.9597 56.0605 96.5138 56.2029 95.1998 56.7472C93.8858 57.2915 92.7626 58.2133 91.9724 59.3959C91.1823 60.5785 90.7605 61.9688 90.7605 63.3911C90.7605 65.2984 91.5181 67.1275 92.8668 68.4761C94.2154 69.8247 96.0445 70.5824 97.9518 70.5824Z" stroke="white" stroke-miterlimit="10"/>
<path d="M97.9515 67.1393C98.6929 67.1393 99.4175 66.9195 100.034 66.5077C100.65 66.0958 101.131 65.5105 101.414 64.8256C101.698 64.1407 101.772 63.387 101.628 62.66C101.483 61.9329 101.126 61.265 100.602 60.7408C100.078 60.2166 99.41 59.8596 98.6829 59.715C97.9558 59.5703 97.2022 59.6446 96.5173 59.9283C95.8324 60.2119 95.247 60.6924 94.8351 61.3087C94.4233 61.9251 94.2034 62.6498 94.2034 63.3911C94.2034 64.3852 94.5983 65.3386 95.3012 66.0415C96.0041 66.7444 96.9575 67.1393 97.9515 67.1393Z" stroke="white" stroke-miterlimit="10"/>
<path d="M27.2155 70.5824C28.6378 70.5824 30.0282 70.1606 31.2108 69.3704C32.3934 68.5803 33.3151 67.4571 33.8594 66.1431C34.4037 64.8291 34.5461 63.3831 34.2686 61.9882C33.9911 60.5932 33.3062 59.3118 32.3005 58.3061C31.2948 57.3004 30.0134 56.6155 28.6185 56.338C27.2235 56.0605 25.7776 56.2029 24.4635 56.7472C23.1495 57.2915 22.0264 58.2133 21.2362 59.3959C20.446 60.5785 20.0242 61.9688 20.0242 63.3911C20.0242 65.2984 20.7819 67.1275 22.1305 68.4761C23.4791 69.8247 25.3083 70.5824 27.2155 70.5824Z" stroke="white" stroke-miterlimit="10"/>
<path d="M27.2153 67.1393C27.9566 67.1393 28.6813 66.9195 29.2977 66.5076C29.9141 66.0958 30.3945 65.5104 30.6782 64.8255C30.9619 64.1406 31.0361 63.387 30.8915 62.6599C30.7468 61.9328 30.3899 61.265 29.8657 60.7408C29.3415 60.2166 28.6736 59.8596 27.9465 59.715C27.2195 59.5703 26.4658 59.6446 25.7809 59.9283C25.096 60.212 24.5106 60.6924 24.0988 61.3088C23.6869 61.9251 23.4671 62.6498 23.4671 63.3911C23.4671 64.3852 23.862 65.3386 24.5649 66.0415C25.2678 66.7444 26.2212 67.1393 27.2153 67.1393Z" stroke="white" stroke-miterlimit="10"/>
<path d="M170.214 70.5824C171.636 70.5823 173.026 70.1605 174.209 69.3703C175.391 68.58 176.313 67.4569 176.857 66.1428C177.402 64.8288 177.544 63.3829 177.266 61.9879C176.989 60.593 176.304 59.3117 175.298 58.306C174.293 57.3003 173.011 56.6154 171.616 56.338C170.221 56.0605 168.775 56.203 167.461 56.7473C166.147 57.2916 165.024 58.2133 164.234 59.3959C163.444 60.5785 163.022 61.9688 163.022 63.3911C163.022 64.3355 163.208 65.2707 163.57 66.1432C163.931 67.0157 164.461 67.8085 165.128 68.4763C165.796 69.144 166.589 69.6737 167.462 70.0351C168.334 70.3965 169.269 70.5825 170.214 70.5824V70.5824Z" stroke="white" stroke-miterlimit="10"/>
<path d="M170.213 67.1393C170.954 67.1393 171.679 66.9195 172.295 66.5076C172.912 66.0958 173.392 65.5104 173.676 64.8255C173.959 64.1406 174.034 63.387 173.889 62.6599C173.744 61.9328 173.387 61.265 172.863 60.7408C172.339 60.2166 171.671 59.8596 170.944 59.715C170.217 59.5703 169.463 59.6446 168.778 59.9283C168.094 60.212 167.508 60.6924 167.096 61.3088C166.684 61.9251 166.465 62.6498 166.465 63.3911C166.465 63.8834 166.562 64.3708 166.75 64.8255C166.938 65.2803 167.214 65.6935 167.562 66.0416C167.91 66.3896 168.324 66.6657 168.778 66.8541C169.233 67.0424 169.721 67.1393 170.213 67.1393V67.1393Z" stroke="white" stroke-miterlimit="10"/>
<path d="M189.042 70.5824C190.464 70.5823 191.854 70.1605 193.037 69.3703C194.219 68.58 195.141 67.4569 195.685 66.1428C196.229 64.8288 196.372 63.3829 196.094 61.9879C195.817 60.593 195.132 59.3117 194.126 58.306C193.12 57.3003 191.839 56.6154 190.444 56.338C189.049 56.0605 187.603 56.203 186.289 56.7473C184.975 57.2916 183.852 58.2133 183.062 59.3959C182.272 60.5785 181.85 61.9688 181.85 63.3911C181.85 64.3355 182.036 65.2707 182.397 66.1432C182.759 67.0157 183.289 67.8085 183.956 68.4763C184.624 69.144 185.417 69.6737 186.289 70.0351C187.162 70.3965 188.097 70.5825 189.042 70.5824Z" stroke="white" stroke-miterlimit="10"/>
<path d="M189.041 67.1393C189.782 67.1393 190.507 66.9195 191.123 66.5076C191.739 66.0957 192.22 65.5103 192.504 64.8254C192.787 64.1406 192.861 63.3869 192.717 62.6598C192.572 61.9328 192.215 61.2649 191.691 60.7407C191.167 60.2166 190.499 59.8596 189.772 59.715C189.045 59.5703 188.291 59.6446 187.606 59.9283C186.921 60.212 186.336 60.6924 185.924 61.3088C185.512 61.9251 185.292 62.6498 185.292 63.3911C185.292 63.8834 185.389 64.3708 185.578 64.8256C185.766 65.2803 186.042 65.6935 186.39 66.0416C186.738 66.3896 187.151 66.6657 187.606 66.8541C188.061 67.0424 188.548 67.1394 189.041 67.1393V67.1393Z" stroke="white" stroke-miterlimit="10"/>
<path d="M54.586 68.3598H38.0242C37.8695 68.3604 37.7162 68.3304 37.5731 68.2715C37.4301 68.2126 37.3001 68.1259 37.1907 68.0165C37.0813 67.9071 36.9947 67.7772 36.9357 67.6341C36.8768 67.4911 36.8468 67.3377 36.8475 67.183V62.476C36.8468 62.3212 36.8768 62.1679 36.9357 62.0249C36.9946 61.8818 37.0813 61.7518 37.1907 61.6424C37.3001 61.533 37.4301 61.4463 37.5731 61.3874C37.7162 61.3285 37.8695 61.2985 38.0242 61.2991H54.586C54.7408 61.2984 54.8942 61.3284 55.0373 61.3873C55.1805 61.4462 55.3105 61.5329 55.42 61.6424C55.5294 61.7519 55.6161 61.8819 55.675 62.0251C55.734 62.1682 55.7639 62.3216 55.7632 62.4764V67.1835C55.7638 67.3382 55.7337 67.4915 55.6748 67.6345C55.6158 67.7776 55.5291 67.9075 55.4196 68.0169C55.3102 68.1262 55.1802 68.2128 55.0371 68.2717C54.894 68.3305 54.7407 68.3605 54.586 68.3598V68.3598Z" stroke="white" stroke-miterlimit="10"/>
<path d="M134.959 42.2185C134.837 42.2283 134.714 42.2123 134.599 42.1716C134.483 42.1308 134.377 42.0662 134.288 41.9819C134.199 41.8976 134.129 41.7956 134.082 41.6824C134.035 41.5693 134.013 41.4475 134.016 41.325V34.0776H128.754C128.64 34.0769 128.528 34.0439 128.431 33.9824C128.335 33.921 128.257 33.8336 128.208 33.7302C128.106 33.5851 128.054 33.411 128.059 33.2338C128.059 33.0877 128.112 32.9464 128.208 32.8367C131.336 28.4187 134.512 24.0009 137.64 19.5829C137.757 19.4533 137.904 19.3541 138.069 19.2936C138.233 19.2331 138.409 19.2132 138.583 19.2355C138.655 19.2353 138.726 19.2493 138.792 19.2767C138.858 19.3041 138.919 19.3443 138.969 19.395C139.02 19.4458 139.06 19.506 139.088 19.5724C139.115 19.6387 139.129 19.7098 139.129 19.7815V27.3762H144.391C144.505 27.377 144.617 27.41 144.714 27.4715C144.81 27.533 144.887 27.6204 144.937 27.7237C145.002 27.8636 145.036 28.0161 145.036 28.1705C145.036 28.3249 145.002 28.4774 144.937 28.6173C141.809 33.0351 138.682 37.5027 135.604 41.9205C135.544 42.0103 135.457 42.0795 135.356 42.1191C135.238 42.1931 135.099 42.2278 134.959 42.2185Z" stroke="white" stroke-miterlimit="10"/>
</svg>
