<svg width="196" height="63" viewBox="0 0 196 63" fill="none" xmlns="http://www.w3.org/2000/svg">
<path d="M104.336 28.1656L85.7489 28.2687C85.688 28.2694 85.6283 28.2521 85.5772 28.2189C85.5261 28.1858 85.486 28.1383 85.4618 28.0824C85.4365 28.0263 85.4293 27.9638 85.4413 27.9035C85.4533 27.8432 85.4838 27.7881 85.5286 27.746L85.8585 27.4081C87.838 25.375 90.2789 22.9748 91.5518 22.4607C95.2847 20.9363 103.961 21.6001 104.328 21.6265C104.405 21.633 104.477 21.6678 104.53 21.7243C104.583 21.7808 104.614 21.855 104.615 21.9325L104.649 27.8563C104.647 27.9385 104.614 28.0171 104.555 28.0749C104.497 28.1328 104.418 28.1653 104.336 28.1656Z" stroke="white" stroke-linecap="round" stroke-linejoin="round"/>
<path d="M119.204 28.083L106.567 28.1532C106.485 28.1538 106.406 28.122 106.348 28.0646C106.29 28.0073 106.257 27.9291 106.256 27.8473V27.8473L106.223 21.9236C106.223 21.8419 106.255 21.7634 106.313 21.7054C106.37 21.6474 106.448 21.6146 106.53 21.6143C117.794 21.5516 119.441 27.4495 119.505 27.6998C119.518 27.7448 119.519 27.7921 119.509 27.8378C119.5 27.8835 119.479 27.9261 119.449 27.9621C119.421 28.0004 119.384 28.0313 119.341 28.0524C119.299 28.0734 119.252 28.0839 119.204 28.083V28.083Z" stroke="white" stroke-linecap="round" stroke-linejoin="round"/>
<path d="M113.995 40.6727L84.6019 40.8358" stroke="white" stroke-linecap="round" stroke-linejoin="round"/>
<path d="M120.557 43.235C121.977 43.2243 123.119 42.0501 123.108 40.6123C123.098 39.1746 121.937 38.0178 120.517 38.0285C119.097 38.0392 117.954 39.2134 117.965 40.6512C117.976 42.0889 119.136 43.2457 120.557 43.235Z" stroke="white" stroke-linecap="round" stroke-linejoin="round"/>
<path d="M120.575 45.6277C123.3 45.6071 125.493 43.3536 125.472 40.5944C125.451 37.8351 123.225 35.6151 120.499 35.6357C117.774 35.6563 115.581 37.9098 115.602 40.669C115.623 43.4282 117.849 45.6483 120.575 45.6277Z" stroke="white" stroke-linecap="round" stroke-linejoin="round"/>
<path d="M77.8577 43.2349C79.2779 43.2242 80.4205 42.0499 80.4096 40.6122C80.3987 39.1745 79.2386 38.0176 77.8184 38.0284C76.3981 38.0391 75.2556 39.2133 75.2665 40.6511C75.2774 42.0888 76.4375 43.2456 77.8577 43.2349Z" stroke="white" stroke-linecap="round" stroke-linejoin="round"/>
<path d="M77.8759 45.6276C80.6015 45.607 82.7942 43.3535 82.7733 40.5943C82.7524 37.8351 80.526 35.615 77.8003 35.6356C75.0747 35.6562 72.882 37.9097 72.9029 40.6689C72.9237 43.4281 75.1502 45.6482 77.8759 45.6276Z" stroke="white" stroke-linecap="round" stroke-linejoin="round"/>
<path d="M127.66 40.0072L130.61 39.5533L133.535 36.7705C133.722 36.5428 133.858 36.2778 133.934 35.9933C134.014 35.681 134.023 35.3547 133.959 35.0387C133.829 34.3134 133.29 30.9434 132.53 26.3152C130.108 24.4132 127.39 22.9233 124.484 21.9055L126.063 21.055C126.107 21.0239 126.144 20.9832 126.171 20.9358C126.197 20.8884 126.213 20.8357 126.216 20.7815C126.211 20.7352 126.197 20.6903 126.174 20.6497C126.152 20.6091 126.121 20.5735 126.084 20.5451C125.923 20.3994 125.745 20.411 125.327 20.3502C125.112 20.3189 125.31 20.3377 124.877 20.2703C124.233 20.17 123.743 20.1186 123.743 20.1186C120.75 19.8064 119.585 19.7314 119.585 19.7314C117.693 19.6095 110.979 19.3017 101.833 19C100.345 19.0829 98.7404 19.2348 97.0403 19.485C94.7836 19.8171 92.5506 20.2937 90.355 20.912L78.7986 27.1016C76.2545 27.631 74.0909 28.1734 72.3881 28.6356C69.388 29.4496 68.0213 29.9585 66.5646 30.8085C65.7844 31.2639 65.0412 31.7798 64.3418 32.3515L62.8832 36.055L62.0785 36.4343C61.9793 37.1178 61.9741 37.8116 62.0631 38.4964L64.3049 40.6504L70.7752 40.6144" stroke="white" stroke-linecap="round" stroke-linejoin="round"/>
<path d="M66.179 33.2939L68.0629 33.1999C67.7716 34.0943 67.4804 34.9887 67.1892 35.8831L65.3228 35.7746C65.3991 35.5497 65.4755 35.3247 65.5518 35.0997C65.7609 34.498 65.97 33.896 66.179 33.2939Z" stroke="white" stroke-miterlimit="10"/>
<path d="M100.169 39.3455C100.118 39.3498 100.066 39.3432 100.017 39.3261C99.9686 39.309 99.924 39.282 99.8865 39.2466C99.849 39.2112 99.8194 39.1683 99.7995 39.1207C99.7797 39.0731 99.77 39.0219 99.7713 38.9704V35.9272H97.5525C97.5043 35.9269 97.4571 35.9131 97.4164 35.8873C97.3757 35.8615 97.3431 35.8248 97.3222 35.7814C97.2794 35.7205 97.2574 35.6473 97.2595 35.5729C97.2593 35.5115 97.2816 35.4522 97.3222 35.4062C98.6411 33.551 99.9809 31.6961 101.3 29.8411C101.349 29.7866 101.412 29.7449 101.481 29.7195C101.55 29.6941 101.624 29.6858 101.697 29.6951C101.728 29.695 101.758 29.7008 101.786 29.7123C101.814 29.7237 101.839 29.7406 101.86 29.7619C101.882 29.7832 101.899 29.8085 101.91 29.8364C101.922 29.8643 101.928 29.8942 101.928 29.9244V33.1135H104.147C104.195 33.1137 104.242 33.1276 104.283 33.1533C104.323 33.1791 104.356 33.2159 104.377 33.2593C104.404 33.318 104.419 33.3821 104.419 33.4469C104.419 33.5118 104.404 33.5758 104.377 33.6345C103.058 35.4897 101.739 37.3655 100.441 39.2204C100.415 39.2581 100.379 39.2872 100.337 39.3039C100.286 39.3349 100.228 39.3495 100.169 39.3455V39.3455Z" stroke="white" stroke-linecap="round" stroke-linejoin="round"/>
</svg>
