<svg width="220" height="80" viewBox="0 0 220 80" fill="none" xmlns="http://www.w3.org/2000/svg">
<path d="M116.334 36.1049L97.7476 36.208C97.6867 36.2087 97.627 36.1914 97.5759 36.1582C97.5248 36.1251 97.4847 36.0776 97.4605 36.0217C97.4352 35.9656 97.4281 35.9031 97.44 35.8428C97.452 35.7825 97.4825 35.7274 97.5273 35.6853L97.8573 35.3474C99.8367 33.3143 102.278 30.9141 103.55 30.4C107.283 28.8756 115.96 29.5394 116.326 29.5658C116.404 29.5723 116.476 29.6071 116.529 29.6636C116.582 29.7201 116.613 29.7943 116.614 29.8718L116.647 35.7956C116.646 35.8778 116.613 35.9564 116.554 36.0142C116.496 36.0721 116.417 36.1046 116.334 36.1049Z" stroke="white" stroke-linecap="round" stroke-linejoin="round"/>
<path d="M131.203 36.0223L118.566 36.0925C118.484 36.0932 118.405 36.0613 118.347 36.0039C118.289 35.9466 118.256 35.8684 118.255 35.7867V35.7867L118.222 29.863C118.222 29.7812 118.254 29.7027 118.311 29.6447C118.369 29.5867 118.447 29.554 118.529 29.5537C129.793 29.491 131.44 35.3889 131.504 35.6391C131.516 35.6841 131.518 35.7314 131.508 35.7771C131.498 35.8228 131.478 35.8654 131.448 35.9014C131.42 35.9397 131.383 35.9707 131.34 35.9917C131.297 36.0127 131.25 36.0232 131.203 36.0223V36.0223Z" stroke="white" stroke-linecap="round" stroke-linejoin="round"/>
<path d="M125.994 48.612L96.6007 48.7751" stroke="white" stroke-linecap="round" stroke-linejoin="round"/>
<path d="M132.555 51.1743C133.976 51.1636 135.118 49.9894 135.107 48.5516C135.096 47.1139 133.936 45.9571 132.516 45.9678C131.096 45.9785 129.953 47.1527 129.964 48.5905C129.975 50.0282 131.135 51.185 132.555 51.1743Z" stroke="white" stroke-linecap="round" stroke-linejoin="round"/>
<path d="M132.573 53.567C135.299 53.5463 137.492 51.2929 137.471 48.5336C137.45 45.7744 135.224 43.5543 132.498 43.5749C129.772 43.5955 127.58 45.849 127.601 48.6082C127.621 51.3675 129.848 53.5876 132.573 53.567Z" stroke="white" stroke-linecap="round" stroke-linejoin="round"/>
<path d="M89.8565 51.1743C91.2767 51.1635 92.4192 49.9893 92.4084 48.5516C92.3975 47.1138 91.2374 45.957 89.8172 45.9677C88.3969 45.9785 87.2544 47.1527 87.2653 48.5904C87.2761 50.0282 88.4363 51.185 89.8565 51.1743Z" stroke="white" stroke-linecap="round" stroke-linejoin="round"/>
<path d="M89.8746 53.567C92.6003 53.5464 94.7929 51.2929 94.7721 48.5337C94.7512 45.7745 92.5247 43.5544 89.7991 43.575C87.0735 43.5956 84.8808 45.8491 84.9017 48.6083C84.9225 51.3675 87.149 53.5876 89.8746 53.567Z" stroke="white" stroke-linecap="round" stroke-linejoin="round"/>
<path d="M139.658 47.9465L142.609 47.4927L145.534 44.7098C145.721 44.4821 145.857 44.2171 145.933 43.9326C146.013 43.6204 146.021 43.2941 145.958 42.9781C145.828 42.2527 145.288 38.8828 144.528 34.2546C142.107 32.3525 139.389 30.8626 136.483 29.8448L138.062 28.9943C138.106 28.9632 138.143 28.9225 138.17 28.8751C138.196 28.8278 138.212 28.775 138.215 28.7208C138.21 28.6745 138.196 28.6297 138.173 28.589C138.15 28.5484 138.12 28.5128 138.083 28.4844C137.922 28.3388 137.744 28.3504 137.326 28.2896C137.111 28.2582 137.308 28.277 136.876 28.2097C136.231 28.1094 135.741 28.0579 135.741 28.0579C132.749 27.7457 131.584 27.6707 131.584 27.6707C129.692 27.5488 122.978 27.2411 113.832 26.9393C112.343 27.0222 110.739 27.1741 109.039 27.4243C106.782 27.7564 104.549 28.2331 102.354 28.8513L90.7974 35.0409C88.2533 35.5704 86.0897 36.1127 84.3868 36.5749C81.3868 37.3889 80.02 37.8979 78.5634 38.7478C77.7832 39.2032 77.04 39.7191 76.3405 40.2908L74.882 43.9944L74.0773 44.3737C73.978 45.0571 73.9729 45.7509 74.0619 46.4357L76.3037 48.5897L82.774 48.5538" stroke="white" stroke-linecap="round" stroke-linejoin="round"/>
<path d="M78.1778 41.2332L80.0617 41.1392C79.7704 42.0336 79.4792 42.928 79.188 43.8224L77.3215 43.7139C77.3979 43.489 77.4743 43.264 77.5506 43.039C77.7597 42.4373 77.9688 41.8353 78.1778 41.2332Z" stroke="white" stroke-miterlimit="10"/>
<path d="M112.168 47.2849C112.116 47.2891 112.065 47.2825 112.016 47.2654C111.967 47.2484 111.923 47.2213 111.885 47.1859C111.848 47.1505 111.818 47.1076 111.798 47.0601C111.778 47.0125 111.769 46.9612 111.77 46.9097V43.8665H109.551C109.503 43.8663 109.456 43.8525 109.415 43.8267C109.374 43.8009 109.342 43.7642 109.321 43.7207C109.278 43.6598 109.256 43.5867 109.258 43.5122C109.258 43.4509 109.28 43.3915 109.321 43.3455C110.64 41.4903 111.98 39.6354 113.298 37.7804C113.348 37.7259 113.41 37.6842 113.48 37.6588C113.549 37.6334 113.623 37.6251 113.696 37.6345C113.726 37.6343 113.756 37.6401 113.784 37.6516C113.812 37.6631 113.838 37.6799 113.859 37.7012C113.88 37.7225 113.897 37.7479 113.909 37.7758C113.921 37.8036 113.927 37.8336 113.926 37.8637V41.0528H116.145C116.193 41.0531 116.241 41.0669 116.281 41.0927C116.322 41.1185 116.355 41.1552 116.376 41.1987C116.403 41.2573 116.417 41.3214 116.417 41.3862C116.417 41.4511 116.403 41.5151 116.376 41.5738C115.057 43.4291 113.738 45.3048 112.44 47.1598C112.414 47.1975 112.378 47.2266 112.335 47.2432C112.285 47.2742 112.227 47.2888 112.168 47.2849V47.2849Z" stroke="white" stroke-linecap="round" stroke-linejoin="round"/>
</svg>
