<svg width="100" height="122" viewBox="0 0 100 122" fill="none" xmlns="http://www.w3.org/2000/svg">
<g clip-path="url(#clip0)">
<path d="M99.7448 49.9649C99.7448 24.0629 78.7754 3.06543 52.9591 3.06543C52.1938 3.06543 51.4285 3.06543 50.6121 3.11652C28.3162 4.18938 7.70398 24.4205 6.22439 46.7463C5.15296 62.0219 11.6836 76.8887 23.6223 86.4423C34.6428 95.3318 44.1326 105.958 50.6121 118.526L51.9897 121.132C52.2958 121.694 52.9591 121.898 53.5203 121.591C53.7244 121.489 53.8775 121.336 53.9795 121.132L54.7448 119.599C61.4795 106.776 70.8162 95.5361 82.1428 86.5445C93.2652 77.7061 99.7448 64.2187 99.7448 49.9649Z" fill="black"/>
<path d="M93.6227 46.8995C93.6227 20.9975 72.7044 0 46.837 0C46.0717 0 45.3064 0 44.4901 0.0510888C22.1942 1.12395 1.58191 21.4062 0.102316 43.6809C-0.969113 58.9564 5.5615 73.8233 17.5003 83.3769C28.5207 92.2663 38.0105 102.893 44.4901 115.461L45.8676 118.066C46.1737 118.628 46.837 118.832 47.3982 118.526C47.6023 118.424 47.7554 118.271 47.8574 118.066L48.6227 116.533C55.3574 103.71 64.6942 92.4707 76.0207 83.4791C87.1431 74.6407 93.6227 61.1533 93.6227 46.8995Z" fill="#FFC23A"/>
</g>
<defs>
<clipPath id="clip0">
<rect width="100" height="122" fill="white"/>
</clipPath>
</defs>
</svg>
