<svg width="220" height="80" viewBox="0 0 220 80" fill="none" xmlns="http://www.w3.org/2000/svg">
<path d="M137.324 47.9408C136.157 47.9092 135.006 48.226 134.019 48.8506C133.032 49.4752 132.253 50.3795 131.782 51.4483C131.311 52.517 131.169 53.7019 131.373 54.8518C131.578 56.0018 132.12 57.0649 132.931 57.9056C133.742 58.7463 134.784 59.3266 135.926 59.5726C137.068 59.8186 138.257 59.7191 139.342 59.2869C140.427 58.8546 141.359 58.1091 142.019 57.1454C142.679 56.1817 143.037 55.0433 143.048 53.8754C143.076 52.3294 142.488 50.8357 141.415 49.7228C140.342 48.6099 138.87 47.9689 137.324 47.9408V47.9408ZM137.245 56.8821C136.638 56.8875 136.042 56.7119 135.535 56.3778C135.028 56.0436 134.631 55.566 134.396 55.0057C134.161 54.4455 134.098 53.828 134.216 53.2319C134.333 52.6358 134.625 52.088 135.054 51.6584C135.484 51.2288 136.032 50.9368 136.628 50.8196C137.224 50.7023 137.841 50.7652 138.402 51.0001C138.962 51.2351 139.44 51.6314 139.774 52.1388C140.108 52.6461 140.284 53.2414 140.278 53.8489C140.278 54.6532 139.958 55.4245 139.39 55.9933C138.821 56.562 138.05 56.8817 137.245 56.8821V56.8821Z" stroke="white" stroke-miterlimit="10"/>
<path d="M137.272 56.8821C137.879 56.8927 138.476 56.7223 138.986 56.3926C139.496 56.0628 139.897 55.5887 140.136 55.0306C140.376 54.4725 140.445 53.8556 140.333 53.2585C140.221 52.6614 139.933 52.1112 139.508 51.6779C139.082 51.2446 138.537 50.9479 137.942 50.8254C137.347 50.703 136.729 50.7604 136.167 50.9904C135.604 51.2204 135.123 51.6126 134.785 52.117C134.446 52.6213 134.265 53.215 134.265 53.8225C134.258 54.6269 134.571 55.401 135.135 55.9748C135.699 56.5486 136.467 56.8749 137.272 56.8821V56.8821Z" stroke="white" stroke-miterlimit="10"/>
<path d="M144.076 49.8115C144.729 50.7743 145.178 51.8604 145.395 53.003L152.727 52.3963L152.754 49.8906L144.076 49.8115Z" stroke="white" stroke-linecap="round" stroke-linejoin="round"/>
<path d="M66.559 52.6462L73.8122 52.7253C74.0094 51.4203 74.5158 50.1814 75.2892 49.1119L66.6117 49.0328L66.559 52.6462Z" stroke="white" stroke-linecap="round" stroke-linejoin="round"/>
<path d="M82.1732 47.4398C81.0056 47.4082 79.855 47.7248 78.868 48.3495C77.881 48.9741 77.1023 49.8784 76.6311 50.9471C76.1598 52.0159 76.0174 53.2007 76.2219 54.3507C76.4265 55.5007 76.9687 56.5637 77.7795 57.4045C78.5904 58.2452 79.6331 58.8255 80.775 59.0715C81.9168 59.3175 83.106 59.2181 84.1911 58.7858C85.2762 58.3536 86.2081 57.6081 86.868 56.6443C87.5279 55.6806 87.886 54.5422 87.8967 53.3742C87.9245 51.8284 87.3371 50.3347 86.2638 49.2219C85.1905 48.109 83.7191 47.468 82.1732 47.4398V47.4398ZM82.0942 56.381C81.4867 56.3863 80.8914 56.2107 80.384 55.8765C79.8767 55.5423 79.4803 55.0647 79.2454 54.5044C79.0104 53.9442 78.9476 53.3267 79.0648 52.7306C79.182 52.1345 79.474 51.5868 79.9036 51.1572C80.3332 50.7276 80.8809 50.4356 81.477 50.3184C82.0731 50.2012 82.6906 50.2641 83.2509 50.4991C83.8111 50.734 84.2887 51.1304 84.6229 51.6377C84.9571 52.1451 85.1327 52.7404 85.1274 53.3479C85.1271 54.1522 84.8074 54.9236 84.2386 55.4923C83.6698 56.0611 82.8985 56.3807 82.0942 56.381V56.381Z" stroke="white" stroke-miterlimit="10"/>
<path d="M111.793 50.5151C111.72 50.5527 111.638 50.5709 111.556 50.5679C111.491 50.5731 111.425 50.5646 111.364 50.543C111.303 50.5213 111.246 50.487 111.199 50.4422C111.152 50.3974 111.115 50.3432 111.09 50.2831C111.065 50.2229 111.053 50.1582 111.054 50.0931V49.592L88.6614 49.381C89.4065 50.4678 89.8855 51.7147 90.0596 53.0208L129.649 53.39C129.846 52.085 130.353 50.846 131.126 49.7767L112.479 49.6184L111.925 50.4097C111.893 50.4574 111.847 50.4942 111.793 50.5151V50.5151Z" stroke="white" stroke-linecap="round" stroke-linejoin="round"/>
<path d="M82.1469 50.262C81.5396 50.2462 80.9414 50.4115 80.4284 50.7369C79.9154 51.0623 79.5108 51.5329 79.2663 52.089C79.0217 52.6451 78.9481 53.2613 79.055 53.8593C79.1618 54.4573 79.4442 55.01 79.8663 55.447C80.2883 55.8839 80.8308 56.1854 81.4247 56.3129C82.0187 56.4405 82.6371 56.3884 83.2013 56.1633C83.7656 55.9382 84.25 55.5503 84.593 55.0489C84.936 54.5475 85.122 53.9554 85.1273 53.3479C85.1365 52.949 85.0665 52.5522 84.9212 52.1806C84.776 51.809 84.5585 51.4698 84.2813 51.1828C84.0041 50.8958 83.6727 50.6666 83.3063 50.5086C82.94 50.3505 82.5459 50.2667 82.1469 50.262Z" stroke="white" stroke-miterlimit="10"/>
<path d="M150.195 20.2731L97.6291 19.7983C95.6751 19.781 93.7816 20.4746 92.3012 21.7501L77.2411 34.5949C77.2147 34.6214 77.1883 34.6214 77.162 34.6477L69.2493 39.2634C68.669 39.8172 68.0624 40.3714 67.4821 40.925C67.192 42.0592 66.9283 43.2197 66.6382 44.3538L66.6118 47.3079L75.9486 47.387C76.718 46.5469 77.6553 45.878 78.6999 45.4236C79.7445 44.9692 80.873 44.7395 82.0121 44.7494C83.1511 44.7594 84.2754 45.0087 85.3119 45.4813C86.3484 45.9539 87.274 46.6391 88.0285 47.4925L111.081 47.7039V46.1473H108.285C108.225 46.1469 108.165 46.1294 108.114 46.0968C108.062 46.0641 108.021 46.0177 107.995 45.9628C107.941 45.8857 107.913 45.7934 107.916 45.6993C107.916 45.6217 107.944 45.5467 107.995 45.4883C109.657 43.1406 111.345 40.7935 113.007 38.4461C113.069 38.3772 113.147 38.3245 113.234 38.2923C113.322 38.2602 113.415 38.2496 113.508 38.2614C113.546 38.2613 113.584 38.2688 113.619 38.2833C113.654 38.2979 113.686 38.3192 113.713 38.3462C113.74 38.3732 113.761 38.4052 113.776 38.4405C113.791 38.4757 113.798 38.5135 113.798 38.5516V42.587H116.594C116.654 42.5874 116.714 42.6049 116.765 42.6376C116.817 42.6703 116.858 42.7167 116.884 42.7716C116.919 42.846 116.937 42.927 116.937 43.009C116.937 43.0911 116.919 43.1721 116.884 43.2464C115.829 44.7496 114.774 46.253 113.719 47.7565L131.469 47.9148C132.239 47.0748 133.176 46.4059 134.221 45.9515C135.265 45.4972 136.394 45.2675 137.533 45.2775C138.672 45.2874 139.796 45.5367 140.833 46.0093C141.869 46.4818 142.795 47.167 143.549 48.0204L152.886 48.0995V46.8332C152.912 43.5891 152.939 40.3449 152.966 37.1006C152.961 36.9068 152.97 36.7129 152.992 36.5203C153.07 32.8014 152.622 22.7788 150.195 20.2731ZM71.4385 44.3275L68.5899 44.3011V43.9318L69.7768 41.0833L72.8101 41.11L71.4385 44.3275ZM97.1809 25.522L95.5192 32.9862C95.4078 33.4799 95.1443 33.9262 94.7657 34.2622C94.3872 34.5982 93.9127 34.8069 93.4093 34.8588L80.5644 36.2827C80.4812 36.2947 80.3965 36.2776 80.3244 36.2344C80.2523 36.1911 80.1974 36.1244 80.1688 36.0454C80.1381 35.9731 80.1319 35.8928 80.1509 35.8167C80.1699 35.7405 80.2132 35.6727 80.2742 35.6233L90.9036 25.7589C91.4938 25.2005 92.2804 24.8973 93.0927 24.9149L96.7061 24.9413C96.7778 24.9413 96.8485 24.9579 96.9126 24.99C96.9767 25.022 97.0324 25.0686 97.0754 25.1259C97.129 25.1749 97.1674 25.2382 97.1861 25.3084C97.2048 25.3786 97.203 25.4526 97.1809 25.5218V25.522ZM148.508 34.7534L141.892 36.7843C141.64 36.8581 141.379 36.8937 141.117 36.8898L101.189 36.5205C100.933 36.5028 100.683 36.4349 100.454 36.3205C100.225 36.2062 100.02 36.0477 99.8519 35.8541C99.6838 35.6606 99.5556 35.4357 99.4746 35.1925C99.3936 34.9493 99.3614 34.6925 99.3798 34.4369L99.4573 26.7616C99.4318 26.2422 99.6134 25.7338 99.9622 25.3481C100.311 24.9624 100.799 24.7308 101.318 24.7042L147.707 25.1526C148.158 25.1815 148.583 25.3744 148.902 25.695C149.221 26.0157 149.411 26.4419 149.438 26.8934C149.645 28.7396 149.774 30.7969 149.799 32.8014C149.821 33.222 149.707 33.6385 149.475 33.9897C149.242 34.341 148.904 34.6085 148.508 34.7532V34.7534Z" stroke="white" stroke-miterlimit="10"/>
<path d="M96.7062 24.9415L93.0927 24.9151C92.2817 24.9051 91.4979 25.2073 90.9035 25.7591L80.2478 35.6235C80.1868 35.6729 80.1435 35.7407 80.1245 35.8169C80.1055 35.893 80.1117 35.9733 80.1424 36.0455C80.171 36.1245 80.226 36.1913 80.298 36.2345C80.3701 36.2778 80.4548 36.2949 80.538 36.2829L93.4092 34.8587C93.9114 34.8031 94.384 34.5932 94.7619 34.2578C95.1398 33.9224 95.4044 33.4781 95.5192 32.986L97.1809 25.5217C97.1983 25.4522 97.1977 25.3795 97.1793 25.3103C97.1608 25.2411 97.1251 25.1777 97.0754 25.1261C97.0365 25.0646 96.9816 25.0149 96.9165 24.9823C96.8514 24.9498 96.7787 24.9357 96.7062 24.9415V24.9415Z" stroke="white" stroke-miterlimit="10"/>
<path d="M68.5898 43.9319V44.3011L71.4383 44.3275L72.8099 41.11L69.7767 41.0837L68.5898 43.9319Z" stroke="white" stroke-miterlimit="10"/>
<path d="M111.556 50.473C111.491 50.4782 111.425 50.4697 111.364 50.4481C111.303 50.4264 111.246 50.3921 111.199 50.3474C111.152 50.3026 111.115 50.2484 111.09 50.1883C111.065 50.1281 111.053 50.0634 111.054 49.9984V46.1474H108.259C108.198 46.1469 108.138 46.1294 108.087 46.0967C108.036 46.064 107.995 46.0176 107.968 45.9626C107.915 45.8856 107.887 45.7932 107.889 45.6992C107.889 45.6216 107.917 45.5465 107.968 45.4882C109.63 43.1404 111.318 40.7933 112.98 38.4459C113.042 38.3771 113.121 38.3243 113.208 38.2922C113.295 38.2601 113.389 38.2495 113.481 38.2613C113.519 38.2612 113.557 38.2686 113.592 38.2832C113.627 38.2977 113.659 38.3191 113.686 38.3461C113.713 38.373 113.735 38.405 113.749 38.4403C113.764 38.4755 113.771 38.5133 113.771 38.5514V42.5869H116.567C116.628 42.5873 116.687 42.6048 116.739 42.6375C116.79 42.6701 116.831 42.7166 116.857 42.7715C116.892 42.8458 116.91 42.9269 116.91 43.0089C116.91 43.0909 116.892 43.172 116.857 43.2463C115.196 45.5937 113.534 47.9675 111.899 50.3149C111.866 50.3625 111.82 50.3993 111.767 50.4204C111.704 50.4597 111.63 50.4781 111.556 50.473Z" stroke="white" stroke-miterlimit="10"/>
</svg>
