<svg width="196" height="63" viewBox="0 0 196 63" fill="none" xmlns="http://www.w3.org/2000/svg">
<path d="M125.765 40.1428C124.598 40.1113 123.447 40.428 122.46 41.0526C121.473 41.6773 120.694 42.5816 120.223 43.6503C119.752 44.7191 119.61 45.9039 119.814 47.0539C120.019 48.2038 120.561 49.2669 121.372 50.1076C122.183 50.9483 123.225 51.5286 124.367 51.7746C125.509 52.0206 126.698 51.9211 127.783 51.4889C128.868 51.0566 129.8 50.3112 130.46 49.3474C131.12 48.3837 131.478 47.2453 131.489 46.0774C131.517 44.5314 130.929 43.0378 129.856 41.9249C128.783 40.8119 127.311 40.1709 125.765 40.1428V40.1428ZM125.686 49.0842C125.079 49.0895 124.483 48.9139 123.976 48.5798C123.469 48.2456 123.072 47.768 122.837 47.2078C122.602 46.6475 122.54 46.03 122.657 45.4339C122.774 44.8378 123.066 44.2901 123.495 43.8605C123.925 43.4309 124.473 43.1388 125.069 43.0216C125.665 42.9044 126.282 42.9672 126.843 43.2022C127.403 43.4371 127.881 43.8335 128.215 44.3408C128.549 44.8481 128.725 45.4435 128.719 46.051C128.719 46.8553 128.399 47.6265 127.831 48.1953C127.262 48.7641 126.491 49.0838 125.686 49.0842V49.0842Z" stroke="white" stroke-miterlimit="10"/>
<path d="M125.713 49.0841C126.32 49.0947 126.917 48.9243 127.427 48.5946C127.937 48.2649 128.338 47.7908 128.578 47.2326C128.817 46.6745 128.886 46.0576 128.774 45.4605C128.662 44.8635 128.374 44.3132 127.949 43.8799C127.523 43.4466 126.978 43.1499 126.383 43.0275C125.788 42.905 125.17 42.9625 124.608 43.1925C124.045 43.4225 123.564 43.8146 123.226 44.319C122.887 44.8233 122.706 45.4171 122.706 46.0245C122.699 46.8289 123.012 47.6031 123.576 48.1768C124.14 48.7506 124.908 49.0769 125.713 49.0841V49.0841Z" stroke="white" stroke-miterlimit="10"/>
<path d="M132.517 42.0135C133.17 42.9763 133.619 44.0623 133.836 45.2049L141.169 44.5983L141.195 42.0926L132.517 42.0135Z" stroke="white" stroke-linecap="round" stroke-linejoin="round"/>
<path d="M55 44.8482L62.2533 44.9273C62.4505 43.6223 62.9569 42.3834 63.7303 41.3139L55.0528 41.2348L55 44.8482Z" stroke="white" stroke-linecap="round" stroke-linejoin="round"/>
<path d="M70.6142 39.6418C69.4466 39.6102 68.296 39.9269 67.309 40.5515C66.322 41.1761 65.5433 42.0804 65.0721 43.1491C64.6008 44.2179 64.4584 45.4027 64.6629 46.5527C64.8674 47.7027 65.4097 48.7658 66.2205 49.6065C67.0313 50.4472 68.0741 51.0276 69.2159 51.2736C70.3578 51.5196 71.547 51.4201 72.6321 50.9879C73.7172 50.5556 74.6491 49.8101 75.309 48.8464C75.9689 47.8826 76.327 46.7443 76.3377 45.5763C76.3654 44.0304 75.7781 42.5368 74.7048 41.4239C73.6314 40.311 72.1601 39.67 70.6142 39.6418V39.6418ZM70.5351 48.5831C69.9277 48.5884 69.3323 48.4127 68.825 48.0785C68.3177 47.7444 67.9213 47.2667 67.6864 46.7065C67.4514 46.1462 67.3886 45.5287 67.5058 44.9326C67.623 44.3365 67.915 43.7888 68.3446 43.3592C68.7742 42.9297 69.3219 42.6377 69.918 42.5205C70.5141 42.4033 71.1316 42.4661 71.6918 42.7011C72.2521 42.936 72.7297 43.3324 73.0639 43.8398C73.3981 44.3471 73.5737 44.9424 73.5684 45.5499C73.568 46.3543 73.2484 47.1256 72.6796 47.6943C72.1108 48.2631 71.3395 48.5828 70.5351 48.5831V48.5831Z" stroke="white" stroke-miterlimit="10"/>
<path d="M100.234 42.7171C100.161 42.7547 100.079 42.7729 99.9967 42.7699C99.9318 42.7751 99.8665 42.7666 99.8051 42.7449C99.7437 42.7233 99.6876 42.6889 99.6403 42.6442C99.5931 42.5994 99.5557 42.5452 99.5308 42.485C99.5059 42.4249 99.4939 42.3602 99.4956 42.2951V41.7939L77.1025 41.5829C77.8476 42.6698 78.3266 43.9166 78.5007 45.2228L118.09 45.592C118.287 44.2869 118.794 43.048 119.568 41.9787L100.92 41.8204L100.366 42.6116C100.334 42.6594 100.288 42.6961 100.234 42.7171V42.7171Z" stroke="white" stroke-linecap="round" stroke-linejoin="round"/>
<path d="M70.588 42.464C69.9807 42.4482 69.3825 42.6135 68.8695 42.9389C68.3565 43.2642 67.9519 43.7349 67.7074 44.291C67.4628 44.847 67.3892 45.4633 67.4961 46.0613C67.6029 46.6593 67.8853 47.212 68.3074 47.6489C68.7294 48.0859 69.2719 48.3873 69.8658 48.5149C70.4598 48.6425 71.0782 48.5904 71.6424 48.3653C72.2067 48.1402 72.6911 47.7522 73.0341 47.2508C73.3771 46.7495 73.5631 46.1573 73.5684 45.5499C73.5776 45.151 73.5076 44.7542 73.3623 44.3826C73.2171 44.0109 72.9996 43.6718 72.7224 43.3848C72.4452 43.0978 72.1138 42.8686 71.7474 42.7105C71.3811 42.5525 70.987 42.4687 70.588 42.464Z" stroke="white" stroke-miterlimit="10"/>
<path d="M138.636 12.4751L86.07 12.0003C84.1161 11.9829 82.2225 12.6766 80.7422 13.9521L65.6821 26.7969C65.6556 26.8234 65.6293 26.8234 65.603 26.8497L57.6903 31.4654C57.11 32.0192 56.5034 32.5734 55.9231 33.127C55.633 34.2612 55.3693 35.4217 55.0792 36.5558L55.0527 39.5099L64.3896 39.589C65.159 38.7489 66.0963 38.08 67.1409 37.6256C68.1855 37.1712 69.3139 36.9415 70.453 36.9514C71.5921 36.9614 72.7164 37.2107 73.7529 37.6833C74.7894 38.1558 75.7149 38.8411 76.4695 39.6945L99.5221 39.9059V38.3493H96.7263C96.6655 38.3489 96.6061 38.3314 96.5547 38.2987C96.5034 38.2661 96.4623 38.2197 96.4362 38.1648C96.3822 38.0877 96.3545 37.9954 96.3571 37.9013C96.3569 37.8237 96.385 37.7487 96.4362 37.6903C98.0978 35.3425 99.7859 32.9955 101.448 30.6481C101.51 30.5792 101.588 30.5265 101.675 30.4943C101.763 30.4622 101.856 30.4516 101.949 30.4634C101.987 30.4633 102.025 30.4708 102.06 30.4853C102.095 30.4999 102.127 30.5212 102.154 30.5482C102.181 30.5752 102.202 30.6072 102.217 30.6424C102.231 30.6777 102.239 30.7155 102.239 30.7536V34.789H105.035C105.095 34.7894 105.155 34.8069 105.206 34.8396C105.258 34.8723 105.299 34.9187 105.325 34.9736C105.359 35.048 105.378 35.129 105.378 35.211C105.378 35.2931 105.359 35.3741 105.325 35.4484C104.27 36.9516 103.215 38.455 102.16 39.9585L119.91 40.1168C120.68 39.2768 121.617 38.6079 122.662 38.1535C123.706 37.6992 124.835 37.4695 125.974 37.4795C127.113 37.4894 128.237 37.7387 129.274 38.2113C130.31 38.6838 131.236 39.369 131.99 40.2224L141.327 40.3015V39.0352C141.353 35.7911 141.38 32.5469 141.407 29.3025C141.402 29.1088 141.411 28.9149 141.433 28.7223C141.511 25.0034 141.063 14.9808 138.636 12.4751ZM59.8795 36.5295L57.0309 36.5031V36.1338L58.2178 33.2853L61.251 33.312L59.8795 36.5295ZM85.6219 17.724L83.9602 25.1882C83.8488 25.6819 83.5853 26.1282 83.2067 26.4642C82.8282 26.8002 82.3537 27.0089 81.8502 27.0608L69.0054 28.4847C68.9222 28.4967 68.8374 28.4796 68.7654 28.4364C68.6933 28.3931 68.6383 28.3264 68.6098 28.2474C68.5791 28.1751 68.5728 28.0948 68.5919 28.0187C68.6109 27.9425 68.6542 27.8747 68.7152 27.8253L79.3445 17.9609C79.9348 17.4025 80.7214 17.0993 81.5337 17.1169L85.1471 17.1433C85.2188 17.1433 85.2895 17.1599 85.3536 17.192C85.4176 17.224 85.4734 17.2706 85.5163 17.3279C85.5699 17.3769 85.6084 17.4402 85.6271 17.5104C85.6458 17.5806 85.644 17.6546 85.6219 17.7238V17.724ZM136.949 26.9554L130.333 28.9863C130.081 29.0601 129.82 29.0957 129.558 29.0918L89.6298 28.7225C89.374 28.7048 89.1243 28.6369 88.8949 28.5225C88.6655 28.4082 88.4609 28.2497 88.2928 28.0561C88.1248 27.8626 87.9966 27.6377 87.9156 27.3945C87.8346 27.1513 87.8024 26.8945 87.8208 26.6389L87.8983 18.9636C87.8728 18.4442 88.0544 17.9358 88.4032 17.5501C88.7521 17.1644 89.2397 16.9328 89.7591 16.9062L136.148 17.3546C136.599 17.3835 137.024 17.5764 137.343 17.897C137.662 18.2177 137.852 18.6439 137.879 19.0954C138.086 20.9416 138.215 22.9989 138.24 25.0034C138.262 25.424 138.148 25.8405 137.916 26.1917C137.683 26.543 137.345 26.8105 136.949 26.9552V26.9554Z" stroke="white" stroke-miterlimit="10"/>
<path d="M85.1472 17.1435L81.5337 17.1171C80.7227 17.107 79.9389 17.4092 79.3445 17.9611L68.6888 27.8255C68.6278 27.8748 68.5845 27.9427 68.5655 28.0188C68.5464 28.095 68.5527 28.1752 68.5834 28.2475C68.612 28.3265 68.6669 28.3933 68.739 28.4365C68.8111 28.4797 68.8958 28.4968 68.979 28.4849L81.8502 27.0607C82.3524 27.0051 82.825 26.7951 83.2029 26.4597C83.5808 26.1244 83.8454 25.68 83.9602 25.188L85.6218 17.7237C85.6392 17.6542 85.6387 17.5814 85.6203 17.5122C85.6018 17.443 85.5661 17.3796 85.5164 17.3281C85.4775 17.2665 85.4226 17.2168 85.3575 17.1843C85.2924 17.1518 85.2197 17.1377 85.1472 17.1435V17.1435Z" stroke="white" stroke-miterlimit="10"/>
<path d="M57.0308 36.1338V36.503L59.8793 36.5295L61.2509 33.312L58.2177 33.2856L57.0308 36.1338Z" stroke="white" stroke-miterlimit="10"/>
<path d="M99.9966 42.675C99.9317 42.6802 99.8665 42.6717 99.8051 42.6501C99.7437 42.6284 99.6875 42.5941 99.6403 42.5493C99.593 42.5046 99.5557 42.4503 99.5308 42.3902C99.5058 42.3301 99.4938 42.2654 99.4955 42.2003V38.3493H96.6997C96.6389 38.3489 96.5794 38.3313 96.5281 38.2987C96.4768 38.266 96.4357 38.2195 96.4095 38.1646C96.3555 38.0876 96.3278 37.9952 96.3305 37.9012C96.3302 37.8235 96.3584 37.7485 96.4095 37.6902C98.0712 35.3424 99.7593 32.9953 101.421 30.6479C101.483 30.5791 101.562 30.5263 101.649 30.4942C101.736 30.462 101.83 30.4514 101.922 30.4633C101.96 30.4632 101.998 30.4706 102.033 30.4852C102.068 30.4997 102.1 30.5211 102.127 30.548C102.154 30.575 102.176 30.607 102.19 30.6422C102.205 30.6775 102.212 30.7152 102.212 30.7534V34.7888H105.008C105.069 34.7892 105.128 34.8068 105.18 34.8394C105.231 34.8721 105.272 34.9186 105.298 34.9735C105.333 35.0478 105.351 35.1288 105.351 35.2109C105.351 35.2929 105.333 35.3739 105.298 35.4482C103.637 37.7956 101.975 40.1694 100.34 42.5168C100.307 42.5645 100.261 42.6013 100.208 42.6224C100.145 42.6616 100.071 42.68 99.9966 42.675Z" stroke="white" stroke-miterlimit="10"/>
</svg>
